<?xml version="1.0" standalone="no"?>
<!DOCTYPE svg PUBLIC "-//W3C//DTD SVG 20010904//EN"
 "http://www.w3.org/TR/2001/REC-SVG-20010904/DTD/svg10.dtd">
<svg version="1.0" xmlns="http://www.w3.org/2000/svg"
 width="1809.000000pt" height="1824.000000pt" viewBox="0 0 1809.000000 1824.000000"
 preserveAspectRatio="xMidYMid meet">
<metadata>
Created by potrace 1.16, written by Peter Selinger 2001-2019
</metadata>
<g transform="translate(0.000000,1824.000000) scale(0.100000,-0.100000)"
fill="#000000" stroke="none">
<path d="M4263 17550 c-14 -6 -26 -24 -33 -52 -7 -24 -18 -61 -26 -83 -23 -67
-24 -67 74 -59 99 7 136 14 242 44 88 24 242 52 464 85 155 23 205 38 155 49
-13 3 -188 7 -389 11 -201 3 -387 7 -415 10 -27 3 -60 1 -72 -5z"/>
<path d="M4379 17287 c-44 -33 -100 -89 -95 -94 9 -10 121 71 124 90 4 20 -6
21 -29 4z"/>
<path d="M3680 17062 c-48 -16 -61 -75 -39 -183 24 -124 49 -287 49 -322 0
-39 -21 -60 -41 -40 -6 6 -21 68 -34 139 -36 191 -46 224 -76 246 -31 24 -75
11 -84 -24 -3 -13 6 -140 20 -283 20 -196 32 -277 50 -328 l23 -67 -26 -6
c-60 -12 -139 -47 -219 -95 -46 -28 -91 -49 -101 -47 -10 2 -22 21 -31 48 -44
142 -76 222 -99 245 -13 14 -29 25 -33 25 -16 0 -22 -53 -14 -139 4 -47 8
-106 9 -131 l1 -45 -55 -21 c-75 -28 -89 -35 -135 -66 -53 -36 -231 -64 -459
-72 -156 -6 -172 -8 -216 -32 -35 -19 -52 -36 -63 -64 -15 -38 -47 -65 -140
-113 -93 -48 -245 -158 -303 -218 -62 -65 -85 -101 -109 -170 -15 -42 -3 -63
16 -28 15 29 54 63 107 95 23 14 42 30 42 35 0 9 81 51 87 45 6 -6 -62 -56
-74 -56 -6 0 -17 -10 -26 -22 -8 -13 -33 -43 -56 -68 -84 -92 -156 -263 -194
-460 -26 -137 -28 -395 -4 -477 8 -27 12 -64 10 -84 -6 -42 23 -116 71 -183
36 -51 170 -164 204 -172 18 -5 22 -13 22 -44 0 -32 10 -51 60 -113 99 -124
176 -188 292 -246 122 -61 155 -68 243 -51 67 13 115 40 115 66 0 51 211 368
263 396 21 11 21 11 2 -18 -10 -16 -35 -49 -55 -74 -41 -50 -120 -176 -120
-191 0 -5 -4 -9 -10 -9 -5 0 -14 -19 -20 -42 -24 -93 -53 -150 -150 -287 -126
-180 -124 -176 -216 -490 -21 -69 -52 -157 -70 -197 -19 -39 -49 -114 -68
-165 -19 -52 -51 -137 -71 -189 -93 -241 -131 -502 -142 -975 -11 -468 22
-690 180 -1215 19 -63 51 -176 72 -250 21 -74 51 -162 68 -195 36 -73 111
-176 167 -230 34 -33 70 -83 70 -97 0 -2 -51 -2 -112 0 -100 3 -117 1 -146
-18 -60 -38 -53 -69 22 -90 62 -17 101 -59 126 -136 18 -53 30 -72 73 -107
110 -92 108 -88 91 -142 -18 -62 -18 -237 0 -307 7 -29 17 -122 21 -206 7
-152 7 -154 -20 -220 -14 -37 -31 -75 -36 -84 -19 -37 -4 -82 45 -131 49 -50
66 -130 52 -242 -4 -36 -1 -64 11 -100 15 -42 24 -52 53 -61 73 -24 101 24
107 185 5 126 7 132 86 221 49 54 49 55 44 110 -3 31 -13 72 -23 91 -24 45
-31 252 -13 387 15 112 16 158 4 265 -4 45 -4 77 1 77 5 0 28 -13 52 -30 30
-20 61 -31 100 -35 86 -9 195 -25 214 -31 9 -3 26 -30 37 -59 26 -70 62 -126
119 -187 49 -52 210 -172 282 -210 l45 -23 5 -350 c5 -365 6 -369 52 -412 65
-60 351 -248 543 -357 66 -38 161 -92 210 -121 63 -37 101 -54 127 -54 42 -1
305 111 345 147 l23 20 0 430 c0 237 3 437 6 446 3 9 13 16 22 16 27 0 144
-43 147 -54 27 -102 25 -99 44 -82 19 18 76 22 86 6 3 -5 19 -10 35 -10 16 0
31 -4 35 -9 16 -26 299 -17 332 10 15 13 134 32 193 31 30 0 50 -6 60 -19 63
-76 187 -132 311 -140 97 -6 194 16 304 70 107 53 265 241 265 316 0 14 6 21
20 21 11 0 45 23 75 50 60 55 92 63 99 28 23 -109 27 -167 13 -195 -49 -94
-331 -319 -491 -393 -177 -80 -246 -89 -341 -39 l-60 31 44 -45 c58 -60 50
-71 -46 -63 -136 13 -283 74 -316 131 -4 8 -22 24 -40 37 -30 21 -29 18 16
-39 56 -73 85 -97 188 -152 217 -117 377 -127 614 -39 44 17 89 37 100 44 23
16 65 19 65 4 0 -36 -143 -128 -399 -257 -112 -57 -197 -103 -190 -103 13 0
183 60 224 79 11 6 49 20 85 32 148 52 252 134 588 467 131 129 240 228 247
226 17 -7 43 -404 28 -437 -12 -26 -124 -76 -218 -98 -60 -14 -172 -63 -198
-87 -11 -9 -24 -28 -29 -42 -13 -33 -37 -399 -38 -576 0 -111 -3 -144 -15
-154 -18 -15 -87 -36 -195 -60 -559 -121 -664 -163 -714 -283 -8 -21 -29 -104
-45 -185 -41 -206 -61 -280 -76 -286 -7 -2 -46 25 -87 60 -40 36 -98 82 -128
103 -68 46 -260 156 -306 176 -42 17 -38 34 23 91 53 50 54 71 13 191 -52 149
-109 226 -242 325 -117 88 -127 93 -240 123 -193 52 -413 17 -546 -85 -95 -74
-193 -193 -232 -285 -45 -105 -64 -292 -36 -358 7 -19 32 -48 55 -66 52 -41
48 -47 -73 -108 -94 -47 -170 -96 -243 -154 -23 -19 -64 -50 -90 -69 -81 -59
-311 -299 -338 -353 -14 -29 -12 -54 3 -31 4 6 24 17 45 25 20 7 37 16 37 21
0 6 45 34 67 41 5 1 7 5 5 10 -1 4 1 6 5 5 16 -6 84 45 98 73 22 41 50 38 74
-9 18 -34 6 -56 -59 -113 -128 -111 -350 -399 -350 -454 0 -8 -4 -15 -9 -15
-5 0 -13 -15 -16 -33 -4 -17 -11 -34 -14 -37 -15 -11 -70 -168 -76 -218 -4
-28 -11 -52 -16 -52 -12 0 -12 87 1 95 5 3 7 25 4 48 -3 23 -8 61 -11 84 -4
35 -9 43 -26 43 -19 0 -19 1 -4 18 10 10 17 26 17 35 0 9 10 35 22 58 11 22
25 57 29 77 4 21 11 48 15 61 5 18 4 22 -5 17 -14 -9 -60 -79 -63 -98 -2 -7
-5 -15 -8 -18 -18 -18 -96 -177 -121 -248 -11 -31 -25 -66 -30 -77 -16 -37
-30 -80 -39 -120 -5 -22 -14 -58 -20 -80 -34 -127 -41 -221 -39 -505 1 -157
-1 -307 -5 -335 -8 -48 -5 -55 61 -185 100 -197 115 -234 107 -265 -10 -40
-29 -41 -87 -1 -29 20 -55 36 -59 36 -11 0 -79 -173 -80 -206 -1 -29 13 -48
120 -159 126 -129 141 -157 105 -186 -33 -28 -73 -131 -73 -190 0 -74 15 -92
130 -154 99 -53 102 -57 141 -170 21 -61 34 -80 106 -152 46 -46 83 -89 83
-97 0 -8 -35 -43 -78 -78 -171 -138 -231 -227 -240 -351 -5 -79 -20 -107 -59
-107 -16 0 -29 10 -40 28 -8 15 -26 35 -40 45 -40 31 -70 12 -133 -81 -45 -67
-148 -196 -194 -246 -6 -6 -27 -31 -46 -56 -18 -25 -41 -52 -50 -61 -9 -9 -52
-62 -96 -118 -43 -57 -137 -176 -209 -266 -114 -143 -195 -255 -271 -375 -35
-57 -104 -178 -104 -184 0 -3 509 -6 1132 -6 1076 0 1130 1 1116 18 -8 9 -19
29 -26 44 -23 54 -89 126 -182 199 -52 41 -119 97 -149 126 -63 61 -131 89
-192 79 -31 -5 -39 -3 -39 9 0 8 -7 15 -16 15 -8 0 -13 4 -10 9 11 16 154 25
200 11 45 -13 137 -52 176 -76 14 -8 50 -28 81 -44 53 -27 99 -70 99 -92 0
-13 106 -203 144 -255 l29 -43 818 0 c677 0 817 2 813 13 -3 8 13 25 39 41 35
23 58 52 116 150 l72 121 -7 60 c-8 72 -26 121 -60 156 l-26 27 22 41 c14 28
23 69 26 124 7 94 20 157 34 157 14 0 19 -32 22 -142 4 -101 19 -138 58 -138
22 0 77 55 101 101 32 64 37 62 98 -31 24 -36 91 -111 148 -167 85 -82 104
-106 100 -123 -7 -28 65 -155 122 -216 27 -30 111 -153 111 -165 0 -5 1119 -9
2941 -9 l2941 0 -3 592 -3 591 44 34 c38 29 208 189 368 346 24 23 48 52 53
65 5 12 25 48 44 78 20 31 35 57 33 58 -2 1 -23 8 -48 15 -25 7 -65 19 -90 27
-96 30 -345 37 -1386 39 -970 2 -1032 3 -1068 20 -35 17 -45 32 -126 199 -48
100 -97 206 -108 236 -26 70 -79 194 -125 290 -33 69 -116 267 -239 565 -27
66 -70 183 -96 260 -43 127 -51 144 -93 185 -26 25 -113 88 -194 140 -80 52
-183 119 -227 148 -45 28 -83 52 -85 52 -2 0 -40 24 -86 53 -45 29 -125 77
-177 107 -52 29 -118 68 -145 87 -28 18 -57 33 -65 33 -9 0 -32 11 -52 25 -21
14 -49 30 -63 35 -22 8 -25 7 -25 -13 0 -17 12 -27 56 -46 30 -13 69 -37 86
-53 35 -32 70 -52 108 -61 37 -9 73 -46 67 -68 -11 -40 85 -112 158 -120 17
-2 53 -18 80 -35 28 -17 55 -29 62 -27 6 2 14 -1 18 -6 3 -6 -1 -11 -9 -11 -9
0 -16 -4 -16 -10 0 -5 5 -10 10 -10 6 0 10 -6 10 -14 0 -8 7 -16 15 -20 8 -3
15 -12 15 -19 0 -7 11 -20 25 -27 14 -8 25 -22 25 -34 0 -12 12 -29 28 -38
l27 -17 -40 -1 -40 0 105 -65 105 -65 -45 0 c-25 0 -54 7 -64 15 -14 10 -45
15 -98 15 l-78 0 -1 -27 c0 -16 -3 -22 -6 -15 -7 18 -140 16 -160 -3 -8 -8
-18 -13 -23 -10 -5 3 -20 1 -34 -5 -26 -10 -26 -10 -11 -40 11 -22 13 -35 5
-49 -5 -11 -10 -29 -10 -40 0 -42 -46 -21 -78 35 -10 17 -11 17 -12 2 0 -9 4
-19 9 -23 5 -3 13 -20 16 -38 4 -17 18 -52 30 -77 12 -25 25 -58 28 -75 6 -27
5 -28 -5 -7 -6 12 -16 22 -23 22 -6 0 -18 13 -26 30 -22 46 -148 218 -204 278
-106 114 -192 175 -395 279 -165 84 -465 213 -495 213 -5 0 -16 6 -24 13 -9 8
-74 33 -146 56 -130 43 -184 70 -115 57 64 -11 125 -24 143 -31 11 -5 17 -2
17 8 0 10 8 13 26 9 16 -3 29 1 34 8 7 11 12 11 23 2 8 -7 19 -12 23 -11 12 3
48 -12 55 -23 3 -5 18 -4 33 2 37 14 46 13 46 -5 0 -13 24 -15 160 -15 l160 0
0 30 c0 17 5 30 10 30 6 0 10 -7 10 -15 0 -9 9 -15 25 -15 21 0 25 5 25 30 0
28 -3 30 -35 30 -28 0 -35 4 -35 19 0 14 -10 20 -42 25 -23 4 -47 10 -53 15
-18 13 -173 61 -200 61 -25 0 -25 1 -25 75 0 61 3 75 15 75 9 0 28 11 43 25
l27 25 -28 0 c-15 0 -27 5 -27 11 0 7 6 8 18 3 9 -4 74 -10 145 -12 126 -4
127 -4 127 -28 0 -18 10 -29 40 -44 l40 -20 0 20 c0 20 0 20 43 -1 23 -12 44
-25 47 -30 3 -4 12 -9 20 -11 8 -2 20 -9 26 -17 6 -7 19 -11 30 -9 15 3 6 13
-41 44 -58 40 -205 119 -205 110 0 -8 -144 68 -160 84 -3 3 -41 23 -85 46 -44
23 -114 60 -155 84 -118 68 -180 100 -193 100 -6 0 -50 22 -97 49 -47 26 -175
99 -285 161 -110 62 -234 133 -275 158 -41 25 -147 88 -235 140 -645 382 -633
373 -709 503 -27 46 -56 88 -63 92 -7 4 -13 15 -13 23 0 20 126 141 154 148
12 3 35 17 52 31 16 14 36 25 44 25 8 0 47 19 85 41 39 23 88 48 110 55 22 7
83 32 135 54 99 44 203 80 232 80 9 0 18 5 20 10 2 6 21 13 43 17 22 3 44 12
48 20 4 7 19 13 33 13 32 0 143 46 169 70 14 14 25 16 35 10 8 -5 31 -10 50
-10 25 0 122 -44 340 -153 407 -203 635 -299 975 -410 250 -81 530 -155 610
-161 117 -9 175 -18 170 -27 -6 -8 7 -11 132 -29 118 -17 934 -8 964 11 9 5 8
29 -5 100 -31 168 -49 249 -55 250 -3 0 -15 2 -26 5 -66 13 -111 17 -309 24
-221 8 -256 4 -256 -27 0 -6 -6 -13 -13 -16 -19 -7 25 -38 48 -33 11 3 38 9
60 15 22 6 135 11 252 11 l211 0 7 -29 c3 -16 1 -48 -5 -71 l-11 -42 -92 6
c-51 3 -153 8 -227 11 -179 8 -189 11 -202 46 -9 26 -38 42 -38 20 0 -13 -55
-30 -79 -24 -16 4 -22 -2 -31 -37 -6 -23 -10 -60 -9 -81 4 -49 -17 -75 -27
-34 -13 53 -10 238 5 273 17 40 10 49 -22 27 -15 -9 -27 -29 -30 -48 -11 -69
-55 -283 -62 -299 -8 -19 -45 -25 -45 -8 0 6 -11 10 -25 10 -14 0 -25 -5 -25
-11 0 -8 -4 -8 -12 -1 -22 17 -129 33 -144 21 -10 -8 -21 -7 -41 4 -15 8 -46
20 -68 27 -22 7 -77 34 -122 59 -60 33 -85 54 -92 73 -6 16 -14 28 -19 28 -8
0 -68 49 -95 77 -18 20 -87 118 -87 125 0 5 -7 8 -15 8 -8 0 -15 3 -15 8 0 4
-12 15 -27 24 -16 10 -22 18 -15 18 14 0 -49 70 -63 70 -4 0 -20 11 -37 25
-16 14 -24 25 -17 25 7 0 2 9 -11 20 -13 11 -26 20 -30 20 -14 0 -22 53 -9 60
8 6 -1 43 -35 136 -51 141 -53 154 -31 154 8 0 15 9 15 20 0 13 7 20 20 20 13
0 20 7 20 20 0 11 7 20 15 20 9 0 15 9 15 25 0 22 5 25 51 31 l50 7 -3 41 -3
41 -145 21 c-80 12 -193 29 -253 38 -59 9 -167 25 -240 36 -72 11 -145 24
-162 29 -16 5 -52 12 -80 16 -122 15 -333 59 -366 76 -20 10 -39 15 -43 12
-11 -12 -6 8 6 20 15 16 115 5 203 -23 83 -26 103 -28 330 -40 110 -6 319 -20
465 -31 247 -18 988 -39 1170 -32 41 2 197 8 345 13 289 11 422 22 579 46 126
20 198 42 194 57 -8 24 -121 69 -274 107 -135 34 -268 61 -695 140 -30 5 -67
10 -81 10 -49 0 -58 9 -58 59 0 60 16 117 41 142 16 16 33 19 98 19 92 0 180
31 341 120 52 29 116 64 142 78 26 14 46 27 45 29 -2 1 -29 -6 -61 -17 -233
-82 -431 -80 -567 5 -21 14 -43 25 -49 25 -5 0 -10 4 -10 8 0 4 -9 8 -20 9
-22 2 -80 40 -80 53 0 8 -94 68 -210 134 -36 20 -103 66 -150 101 -47 36 -139
103 -205 151 -66 48 -137 105 -158 127 -22 22 -72 61 -111 87 -40 26 -84 59
-97 72 -47 49 -205 176 -259 209 -30 18 -57 36 -60 39 -3 3 -20 12 -38 20 -43
17 -119 97 -155 163 -16 29 -34 59 -41 67 -7 8 -27 44 -46 80 -18 36 -37 70
-41 76 -16 20 -69 129 -69 142 0 6 6 12 13 12 14 0 40 -21 146 -114 67 -59
121 -90 148 -84 9 2 -23 35 -79 83 -51 44 -127 115 -168 158 -41 43 -98 96
-126 118 -50 38 -162 164 -210 235 -14 20 -27 50 -30 68 -4 23 -3 27 4 16 6
-8 8 -18 6 -22 -3 -4 5 -12 18 -17 13 -5 43 -30 68 -56 83 -86 282 -253 296
-248 16 6 19 39 4 48 -13 8 -180 260 -180 272 0 5 -11 31 -25 57 -91 171 -135
272 -135 309 0 10 -7 39 -15 65 -8 26 -19 80 -23 120 l-9 73 46 -2 45 -3 3 47
c5 79 9 92 27 91 10 -1 15 1 12 4 -3 3 1 13 9 22 13 15 13 22 1 56 -7 22 -23
55 -34 73 -16 26 -18 40 -11 58 6 17 5 33 -6 53 -17 33 -20 54 -6 46 13 -8 51
-89 51 -108 0 -9 6 -21 14 -27 18 -15 36 -83 39 -153 4 -56 17 -95 17 -49 0
12 4 20 9 16 5 -3 12 -1 16 5 6 10 32 155 39 219 6 47 17 54 59 36 49 -20 55
-19 75 13 10 17 24 28 35 26 25 -3 33 41 14 81 -9 18 -29 41 -46 51 -18 10
-33 29 -36 45 -4 19 -11 26 -21 22 -11 -4 -14 6 -14 45 0 32 -5 54 -15 62 -8
7 -15 18 -15 26 0 13 -30 34 -49 34 -19 0 -12 -26 19 -71 31 -46 36 -59 21
-59 -37 0 -154 285 -214 520 -20 77 -22 108 -21 325 2 256 -2 226 75 607 10
53 19 107 19 120 0 13 11 66 24 118 26 101 51 256 61 380 12 136 12 135 -12
138 -32 5 -48 -27 -84 -168 -17 -69 -35 -129 -39 -135 -4 -5 -13 -37 -20 -70
-6 -33 -29 -130 -50 -215 -21 -85 -52 -216 -70 -290 -18 -74 -41 -155 -51
-179 -10 -24 -19 -51 -19 -60 0 -9 -4 -21 -8 -26 -21 -24 -102 -257 -161 -463
-20 -72 -41 -129 -45 -125 -4 5 -5 -4 -1 -19 5 -21 3 -29 -9 -34 -11 -4 -16
-19 -16 -50 0 -24 -4 -44 -10 -44 -5 0 -10 -13 -10 -30 0 -16 -4 -30 -9 -30
-4 0 -11 -33 -15 -72 -4 -40 -9 -88 -13 -106 -5 -30 -6 -31 -19 -15 -12 16
-13 15 -15 -12 -1 -42 -36 90 -45 172 -6 63 -6 63 20 63 26 0 26 0 26 84 l0
85 -47 3 -48 3 -7 50 c-16 99 -13 95 -71 95 -49 0 -53 2 -66 31 -7 17 -28 37
-47 47 -32 15 -34 18 -34 68 0 28 -7 65 -15 80 -8 16 -15 44 -15 62 l0 32 63
1 c34 1 52 4 40 6 -13 2 -23 9 -23 14 0 5 -5 9 -11 9 -7 0 -18 8 -25 18 -13
16 -13 16 -14 0 0 -22 -30 -24 -30 -3 0 8 -9 15 -20 15 -11 0 -20 7 -20 15 0
8 -9 15 -20 15 -15 0 -21 9 -26 40 -5 30 -11 40 -25 40 -16 0 -19 8 -19 45 0
41 -2 45 -25 45 -23 0 -25 -4 -25 -45 0 -41 -2 -45 -25 -45 -23 0 -25 4 -25
45 0 41 -2 45 -25 45 -23 0 -25 -4 -25 -44 0 -34 -4 -45 -18 -48 -12 -4 -23
-22 -32 -54 -7 -27 -16 -53 -20 -57 -8 -9 -80 207 -80 241 0 21 -4 22 -65 22
-45 0 -65 4 -65 13 0 32 -22 87 -35 87 -11 0 -15 12 -15 40 l0 40 40 0 c39 0
40 1 34 28 -4 15 -11 28 -16 30 -4 2 -8 12 -8 23 0 14 -7 19 -25 19 l-25 0 0
120 c0 73 -4 120 -10 120 -5 0 -10 16 -10 36 0 21 4 33 10 29 6 -3 10 -1 10 5
0 6 -13 13 -30 17 -16 3 -30 12 -30 19 0 11 -17 14 -70 14 -68 0 -70 1 -71 25
-1 14 -2 31 -3 38 -1 6 9 14 21 17 21 5 21 6 7 45 -8 22 -16 44 -17 50 -1 5
-8 16 -15 23 -7 8 -10 17 -7 22 3 5 1 10 -5 12 -6 2 -12 13 -14 25 -3 12 -10
31 -16 43 -6 12 -14 31 -18 43 -8 28 -6 154 3 235 7 58 6 62 -13 62 -27 0 -32
46 -38 378 l-5 262 25 0 26 0 0 160 c0 150 1 160 19 160 19 0 31 18 31 46 0 8
-9 14 -20 14 -16 0 -19 5 -15 25 3 14 7 36 10 49 4 17 -2 33 -19 51 -15 16
-28 45 -32 71 -6 45 -33 81 -41 57 -3 -7 -13 -13 -24 -13 -19 0 -19 1 -2 28
10 15 23 31 30 35 16 10 18 147 3 147 -6 0 -13 -8 -17 -17 -3 -10 -25 -47 -48
-83 -42 -65 -75 -102 -75 -82 0 12 77 150 97 173 24 28 53 92 53 116 0 17 6
23 23 23 14 1 34 16 56 45 18 25 37 45 42 45 4 0 11 16 15 35 3 19 10 35 15
35 5 0 9 9 9 20 0 18 -7 20 -61 20 -54 0 -60 2 -49 15 10 13 9 15 -10 15 -19
0 -20 2 -10 15 7 8 9 15 5 15 -4 0 -2 7 5 15 10 12 10 15 0 15 -10 0 -10 3 0
15 10 12 10 15 -4 15 -13 0 -16 14 -17 83 -1 45 -3 74 -6 65 -6 -23 -29 -23
-37 -1 -5 11 2 24 19 39 14 12 25 30 25 41 0 18 -6 20 -57 19 -47 -1 -63 -6
-84 -26 -29 -28 -104 -91 -161 -135 -21 -16 -38 -35 -38 -42 0 -7 -4 -13 -10
-13 -5 0 -10 -7 -10 -15 0 -8 -10 -20 -22 -26 -35 -19 -118 -100 -118 -116 0
-20 -29 -73 -40 -73 -22 0 -30 39 -19 87 11 41 29 63 139 172 69 70 183 171
254 226 70 55 162 128 204 163 43 34 118 93 169 130 50 37 92 72 92 77 1 6 14
16 30 23 15 7 60 37 99 67 38 30 74 55 79 55 4 0 13 8 19 18 7 9 29 26 50 37
22 11 41 22 44 25 13 14 133 80 146 80 8 0 14 6 14 14 0 8 10 17 23 21 12 3
42 15 67 25 25 10 92 37 150 60 58 23 128 55 157 71 29 17 74 36 100 43 26 8
71 23 98 34 28 12 62 24 78 27 15 3 37 15 49 27 l22 22 -26 7 c-14 4 -75 5
-134 3 -62 -1 -103 1 -95 6 10 5 -5 11 -43 15 -36 5 -56 12 -53 19 3 6 -6 11
-19 11 -13 0 -24 -4 -24 -8 0 -5 -6 -5 -12 0 -16 9 -58 5 -125 -12 -28 -7 -54
-11 -56 -8 -3 2 -48 -3 -102 -12 -53 -9 -104 -14 -112 -10 -26 9 -103 -6 -103
-20 0 -8 -18 -15 -47 -18 -67 -6 -239 -51 -331 -87 -102 -39 -304 -113 -422
-154 -52 -19 -115 -43 -140 -54 -25 -12 -76 -35 -115 -52 -153 -69 -225 -104
-225 -112 0 -4 -10 -8 -22 -8 -13 0 -54 -23 -93 -50 -147 -105 -216 -150 -231
-150 -9 0 -47 -29 -86 -64 -69 -63 -115 -84 -151 -70 -21 8 -34 179 -19 253
11 51 10 58 -18 117 -31 65 -78 114 -109 114 -21 0 -41 -39 -41 -80 0 -16 -4
-31 -9 -34 -11 -7 -27 57 -41 159 -5 44 -16 116 -25 160 -8 44 -14 94 -15 112
0 45 -15 49 -57 17 -19 -15 -47 -27 -62 -28 -39 -1 -50 -36 -57 -179 -4 -70
-9 -125 -12 -123 -2 3 -11 42 -18 88 -8 46 -24 101 -34 124 -11 22 -20 52 -20
67 0 28 32 57 62 57 21 0 40 33 36 61 -3 18 -13 20 -203 23 -110 1 -207 1
-215 -2z m138 -98 c29 -20 28 -32 -3 -40 -16 -4 -35 0 -52 11 -25 17 -26 18
-8 31 24 18 35 18 63 -2z m2692 -259 c15 -19 10 -25 -35 -42 -19 -7 -52 -20
-72 -28 -70 -27 -139 -16 -131 20 8 42 210 84 238 50z m-1605 -723 c53 -17 95
-40 95 -51 0 -3 -60 -6 -132 -6 -73 0 -179 -4 -235 -9 -118 -10 -132 -7 -126
27 4 21 14 28 55 38 69 16 194 27 248 22 25 -2 68 -12 95 -21z m-1870 -126
c47 -51 99 -141 90 -156 -4 -7 -12 -7 -25 0 -36 20 -53 13 -48 -20 3 -21 1
-27 -6 -20 -11 11 -56 13 -80 4 -12 -5 -15 -14 -11 -38 5 -26 1 -36 -24 -59
-17 -15 -31 -32 -31 -37 0 -24 -30 -5 -100 64 -109 107 -217 158 -371 175
-113 13 -159 23 -162 35 -3 16 49 24 96 15 107 -20 327 -5 327 23 0 4 8 8 18
8 15 0 17 -9 14 -82 -3 -82 -2 -83 27 -103 16 -11 52 -39 79 -62 l49 -43 8
112 c9 138 10 142 39 114 31 -28 69 -56 77 -56 14 0 16 39 3 70 -8 18 -12 35
-10 37 2 3 -4 13 -15 24 -23 23 -24 39 -2 39 9 0 35 -20 58 -44z m-217 -12
c-4 -3 -17 -2 -30 2 -22 7 -22 7 -3 14 20 8 44 -4 33 -16z m480 -7 c16 -26 16
-29 -3 -65 -15 -27 -27 -37 -47 -39 -31 -2 -49 17 -71 75 -15 38 -16 43 -1 49
8 3 26 1 40 -6 36 -16 55 -14 47 5 -10 27 16 12 35 -19z m783 16 c-14 -28
-236 -237 -303 -286 -37 -27 -58 -34 -58 -18 0 10 155 160 250 242 53 45 95
73 118 78 1 1 -2 -7 -7 -16z m-1542 -207 c66 -18 94 -42 86 -73 -3 -15 0 -25
13 -32 9 -5 24 -26 31 -48 8 -21 24 -61 37 -90 17 -37 22 -60 17 -85 -7 -37
-64 -96 -103 -105 -14 -3 -29 -9 -35 -12 -5 -4 -40 -5 -77 -3 -55 3 -67 7 -71
23 -3 10 -12 19 -21 19 -9 0 -16 5 -16 11 0 15 -36 60 -43 53 -3 -3 -4 7 -2
23 5 38 -3 63 -21 63 -8 0 -14 -8 -15 -17 0 -13 -3 -11 -10 6 -10 26 -83 97
-136 134 -18 12 -33 24 -33 27 1 8 77 60 89 60 6 0 11 4 11 9 0 11 25 19 110
36 87 17 125 17 189 1z m3271 -140 c0 -6 -111 -86 -120 -86 -16 0 -11 46 5 60
8 7 26 13 40 13 14 0 25 3 25 8 0 5 11 9 25 9 14 0 25 -2 25 -4z m-3702 -95
c20 -10 58 -40 84 -65 40 -41 51 -60 82 -154 41 -126 42 -129 32 -207 -16
-133 -29 -152 -39 -57 -13 124 -135 398 -201 453 -12 10 -17 22 -13 32 8 21
10 21 55 -2z m3582 -26 c0 -16 -6 -25 -15 -25 -18 0 -18 5 -5 31 14 26 20 24
20 -6z m-20 -54 c0 -5 -7 -14 -15 -21 -12 -10 -15 -10 -15 2 0 8 3 18 7 21 9
10 23 9 23 -2z m-260 -601 c0 -5 -4 -10 -9 -10 -5 0 -11 -9 -13 -20 -4 -25
-22 -28 -26 -5 -2 9 5 23 15 30 22 17 33 19 33 5z m-3660 -720 c8 -5 11 -12 8
-16 -10 -9 -38 3 -38 16 0 12 10 13 30 0z m3687 -102 c-2 -18 -4 -6 -4 27 0
33 2 48 4 33 2 -15 2 -42 0 -60z m29 -170 c-3 -13 -6 -32 -7 -43 -1 -17 -2
-16 -9 5 -13 41 -11 60 6 60 12 0 15 -6 10 -22z m-1828 -57 c9 -59 -31 -107
-62 -75 -22 21 -20 46 5 78 25 32 53 30 57 -3z m1262 -37 c0 -2 -7 -4 -15 -4
-8 0 -15 4 -15 10 0 5 7 7 15 4 8 -4 15 -8 15 -10z m-100 -46 c0 -16 -3 -19
-11 -11 -6 6 -8 16 -5 22 11 17 16 13 16 -11z m99 -11 c5 -13 14 -75 20 -138
6 -63 18 -163 27 -222 16 -103 16 -110 -2 -142 -27 -51 -49 -54 -73 -8 -16 31
-27 469 -12 506 13 33 29 35 40 4z m-956 -413 c83 -73 183 -194 254 -309 115
-185 261 -588 278 -772 9 -92 -7 -97 -34 -10 -54 173 -198 543 -257 658 -43
85 -154 251 -233 348 -89 109 -140 187 -113 172 9 -5 57 -44 105 -87z m-513
31 c98 -19 205 -55 270 -92 36 -20 57 -25 107 -24 53 2 63 -1 73 -18 6 -12 17
-21 25 -21 8 0 15 -3 15 -7 0 -5 17 -26 38 -48 46 -49 107 -133 122 -166 5
-13 14 -31 19 -39 20 -33 76 -198 90 -263 11 -51 4 -82 -15 -66 -20 17 -18
-40 5 -181 11 -63 24 -147 30 -187 14 -89 14 -273 1 -293 -5 -8 -10 -11 -10
-6 0 5 -6 3 -14 -3 -8 -7 -25 -9 -39 -6 -14 4 -28 2 -31 -4 -15 -23 -35 -10
-41 27 -4 20 -17 60 -29 87 -13 28 -33 84 -45 125 -47 156 -217 501 -350 710
-117 183 -184 252 -303 313 -51 26 -105 47 -120 47 -15 0 -30 5 -34 11 -9 15
-290 2 -367 -17 -32 -8 -67 -14 -78 -14 -11 0 -36 -8 -57 -19 -20 -10 -53 -21
-72 -25 -56 -11 -19 16 86 63 247 107 528 153 724 116z m-467 -741 c18 -9 44
-23 58 -30 32 -17 129 -109 129 -123 0 -6 -33 14 -72 44 -40 30 -107 73 -148
95 -69 38 -72 41 -37 36 21 -3 52 -12 70 -22z m398 -443 c3 -28 9 -45 18 -54
6 -6 11 -27 11 -46 l0 -36 -21 33 c-12 18 -22 46 -23 62 -1 18 -10 36 -24 45
-15 11 -22 26 -22 47 l0 31 30 -38 c17 -21 30 -41 31 -44z m1476 -57 c5 -14
-11 -33 -28 -34 -10 0 -20 31 -13 41 9 15 34 10 41 -7z m2511 -176 c-13 -71
-18 -72 -18 -5 0 42 4 57 14 57 11 0 11 -10 4 -52z m-480 -96 c-18 -7 -38 8
-38 28 0 20 0 20 23 -2 13 -13 20 -25 15 -26z m118 -106 c18 -19 18 -26 -1
-26 -8 0 -15 2 -15 4 0 2 -3 11 -6 20 -8 20 3 21 22 2z m303 -278 c-2 -97 -17
-121 -18 -30 -1 49 3 82 9 82 6 0 9 -23 9 -52z m326 -1371 c54 -97 54 -98 9
-51 -40 41 -64 83 -64 109 0 30 16 13 55 -58z m55 -1374 c0 -7 -61 31 -73 46
-7 8 7 2 31 -14 23 -15 42 -30 42 -32z m58 -33 c45 -28 40 -35 -8 -10 -38 19
-49 30 -32 30 4 0 22 -9 40 -20z m115 -75 c20 -11 37 -23 37 -27 0 -9 -64 23
-92 45 -10 8 -18 18 -18 22 0 5 8 2 18 -6 9 -8 34 -24 55 -34z m77 -45 c0 -5
-5 -10 -11 -10 -5 0 -7 5 -4 10 3 6 8 10 11 10 2 0 4 -4 4 -10z m325 -154 c66
-31 127 -56 136 -56 9 0 27 -8 40 -18 13 -10 57 -29 97 -42 40 -12 75 -26 77
-31 3 -4 42 -20 88 -35 45 -15 112 -42 148 -60 37 -19 74 -34 83 -34 20 0 176
-58 194 -73 6 -5 12 -7 12 -3 0 3 23 -5 50 -19 28 -14 50 -30 50 -35 0 -6 14
-10 30 -10 33 0 152 -34 185 -52 11 -7 31 -18 45 -25 23 -13 22 -14 -20 -8
-62 9 -233 63 -256 80 -10 8 -30 15 -44 15 -14 0 -84 23 -155 51 -72 27 -157
61 -190 73 -61 23 -191 81 -323 142 -40 19 -75 34 -78 34 -11 0 -334 162 -339
170 -9 15 45 -6 170 -64z m-1103 -122 c-3 -18 0 -30 12 -36 23 -13 20 -54 -6
-72 -20 -14 -23 -14 -31 -1 -4 8 -14 15 -21 15 -14 0 -17 -8 -42 -85 -8 -28
-12 -33 -13 -17 -1 13 -7 22 -16 22 -11 0 -6 14 20 51 19 28 35 58 35 66 0 23
40 83 54 83 9 0 12 -9 8 -26z m-592 -114 c0 -24 -41 -88 -82 -126 -47 -46
-117 -84 -190 -104 -67 -18 -206 8 -308 58 -78 39 -103 63 -84 82 7 7 97 15
220 20 208 10 340 31 404 66 31 16 40 17 40 4z m-1071 -97 c66 -5 71 -7 50
-18 -33 -17 -126 -27 -241 -27 -78 1 -105 5 -138 22 -69 35 -43 44 114 37 78
-4 174 -10 215 -14z m-2914 -13 c10 -17 -5 -50 -24 -50 -20 0 -41 19 -41 36 0
19 55 31 65 14z m4395 -120 c0 -11 -7 -20 -15 -20 -15 0 -21 21 -8 33 12 13
23 7 23 -13z m-72 -42 c7 -7 12 -24 12 -39 0 -29 -34 -49 -80 -46 -32 3 -41
-32 -11 -40 12 -3 21 -9 21 -14 0 -13 -28 -11 -32 3 -2 6 -10 8 -17 4 -7 -5
-10 -14 -7 -22 3 -9 -1 -14 -13 -14 -10 0 -24 -7 -31 -15 -7 -8 -23 -15 -37
-15 -13 0 -26 -7 -29 -15 -4 -8 -11 -15 -18 -15 -6 0 -28 -9 -48 -19 -19 -11
-38 -18 -41 -15 -3 3 -47 -2 -98 -10 -52 -9 -104 -17 -116 -19 -12 -2 -26 -6
-29 -10 -4 -4 -22 -7 -41 -7 -23 0 -33 5 -33 15 0 9 -9 15 -24 15 -35 0 -56
10 -56 27 0 10 12 14 48 13 26 -1 82 2 126 6 62 6 80 11 83 24 4 15 10 16 39
7 28 -8 37 -7 52 6 10 10 22 17 26 17 4 0 22 11 39 24 18 13 48 31 67 40 19 9
66 40 105 71 71 56 116 70 143 43z m-2686 -375 c3 -8 187 -132 225 -152 37
-19 43 -42 31 -114 -12 -72 -23 -84 -33 -37 -5 21 -13 30 -26 30 -14 0 -19 7
-19 30 0 34 -24 60 -95 101 -27 16 -57 35 -66 42 -22 17 -41 55 -34 67 4 6 -1
13 -9 16 -9 3 -16 10 -16 15 0 11 37 12 42 2z m583 -633 c83 -21 121 -34 145
-50 14 -9 36 -21 50 -28 14 -7 32 -25 41 -41 9 -15 48 -53 86 -84 53 -42 74
-66 87 -101 l18 -46 -28 -55 c-23 -45 -33 -55 -54 -55 -16 0 -37 12 -55 30
-26 27 -30 28 -49 15 -11 -8 -42 -15 -69 -15 -30 0 -46 -4 -42 -10 4 -6 -27
-9 -87 -9 -65 1 -81 4 -53 8 l40 6 -43 8 c-24 4 -49 4 -55 1 -8 -5 -8 -3 1 7
17 18 15 27 -5 32 -15 4 -14 5 3 6 22 1 64 43 64 65 0 7 -9 21 -21 32 -16 15
-23 16 -37 6 -38 -27 -92 -52 -112 -52 -32 0 -80 29 -89 53 -5 12 -5 32 0 44
10 27 -10 37 -28 14 -11 -14 -12 -13 -13 6 0 12 -6 24 -12 26 -7 3 -4 6 7 6
15 1 17 3 6 14 -10 10 -15 9 -25 -5 -16 -22 -66 -13 -66 13 0 11 7 22 15 25 8
4 13 10 10 14 -10 16 17 57 48 75 82 48 228 69 322 45z m2255 -220 c0 -5 12
-10 28 -10 l27 -1 -25 -14 c-22 -12 -25 -12 -28 2 -3 10 -11 13 -29 8 -88 -22
-114 -13 -35 11 48 15 62 16 62 4z m-1950 -590 c-8 -5 -24 -10 -35 -10 -17 0
-17 2 -5 10 8 5 24 10 35 10 17 0 17 -2 5 -10z m417 -81 c100 -56 294 -250
380 -381 68 -104 174 -315 216 -435 14 -39 42 -147 62 -240 49 -227 56 -386
26 -563 -22 -127 -59 -263 -91 -335 -10 -22 -30 -69 -45 -105 -39 -93 -105
-222 -164 -319 -28 -46 -51 -86 -51 -88 0 -3 -59 -85 -92 -128 -55 -72 -138
-160 -180 -192 -52 -39 -88 -58 -88 -46 0 6 55 73 93 113 26 28 40 79 31 115
-5 22 -7 23 -40 9 -18 -8 -42 -14 -53 -14 -11 0 -32 -11 -46 -24 -15 -14 -59
-37 -98 -52 -40 -15 -90 -35 -112 -44 -69 -30 -85 -33 -85 -16 0 8 9 18 20 21
13 4 20 15 20 31 0 21 -4 24 -20 19 -14 -4 -20 -2 -20 8 0 10 -14 14 -48 16
-44 1 -55 7 -103 51 -30 28 -62 53 -71 56 -10 3 -18 9 -18 14 0 4 -9 10 -20
13 -11 3 -23 13 -27 24 -3 10 -11 21 -17 25 -7 5 -7 8 2 8 6 0 12 6 12 14 0 8
6 17 13 19 6 3 1 6 -13 6 -34 1 -117 -22 -159 -43 -26 -14 -35 -15 -41 -6 -5
8 -20 10 -41 6 -19 -3 -52 -9 -74 -12 -22 -4 -44 -10 -50 -14 -23 -17 -102
-21 -129 -6 l-28 14 40 21 c23 12 48 21 57 21 8 0 23 4 33 10 9 5 60 26 112
46 168 64 310 147 453 265 74 62 179 175 202 220 32 61 38 60 145 -47 55 -54
104 -100 109 -102 19 -6 17 34 -3 63 -11 17 -56 67 -98 113 -43 45 -78 86 -78
91 0 12 -47 31 -75 31 -18 0 -25 -6 -25 -19 0 -10 -7 -24 -15 -31 -8 -6 -30
-40 -49 -74 -40 -71 -50 -82 -89 -91 -23 -6 -27 -4 -27 15 0 17 -4 20 -20 15
-29 -9 -25 14 5 25 17 7 25 17 25 34 0 13 3 26 8 28 12 5 52 66 52 80 0 7 7
22 15 32 8 10 22 42 31 70 9 28 21 56 26 63 5 6 13 25 18 43 9 30 8 31 -18 28
-15 -2 -26 -7 -26 -13 2 -10 -30 -59 -53 -83 -7 -7 -16 -24 -19 -38 -3 -13
-10 -24 -15 -24 -5 0 -18 -18 -29 -40 -11 -22 -31 -47 -44 -55 -12 -8 -28 -26
-34 -39 -14 -32 -139 -124 -184 -136 -21 -6 -43 -18 -50 -28 -14 -19 -86 -47
-95 -38 -3 3 -11 -1 -18 -10 -6 -9 -28 -17 -49 -19 -30 -3 -36 -1 -27 9 6 7 8
15 5 18 -3 3 1 6 8 5 38 -1 48 7 13 12 -31 5 -41 11 -46 31 -7 24 -7 24 -9 -5
-1 -22 -6 -13 -17 35 -8 36 -19 67 -23 70 -4 3 -29 48 -55 100 -41 81 -48 104
-50 161 -1 36 -5 71 -9 77 -5 9 7 12 39 12 44 0 46 1 45 28 -3 41 -1 52 10 52
17 0 58 41 64 64 3 11 38 49 79 84 41 34 83 74 95 87 12 14 113 86 224 160
228 151 248 167 248 189 0 22 -10 20 -44 -9 -16 -14 -33 -25 -38 -25 -5 0 -36
-18 -69 -40 -33 -22 -63 -40 -66 -40 -3 0 -35 -21 -71 -47 -37 -27 -72 -50
-78 -53 -30 -13 -219 -167 -294 -240 -36 -35 -108 -70 -145 -70 -17 0 -65 12
-106 26 -41 14 -112 36 -159 49 -278 78 -244 63 -352 161 -79 73 -94 91 -82
100 19 15 18 52 -2 72 -13 13 -14 17 -3 21 7 2 15 -1 17 -7 5 -17 42 -15 42 2
0 7 -27 30 -61 51 -51 31 -65 36 -83 27 -14 -6 -28 -7 -37 -1 -12 7 -12 9 1
10 8 1 18 1 23 0 13 -2 7 12 -14 35 -43 46 -2 67 86 43 56 -15 202 -107 231
-144 13 -17 30 -47 39 -67 18 -44 24 -48 73 -52 21 -1 44 -6 50 -10 7 -4 12
-2 12 3 0 6 17 13 38 17 36 6 38 7 34 40 -2 19 -8 34 -13 34 -5 0 -9 9 -9 20
0 11 4 20 8 20 30 0 48 202 20 213 -9 4 -4 14 15 31 15 14 27 29 27 35 0 9 28
15 132 27 32 3 55 10 52 16 -3 5 6 6 21 2 25 -6 26 -5 16 14 -10 19 -7 21 29
27 38 6 39 8 25 28 -8 12 -15 24 -15 28 0 3 52 4 115 2 105 -3 121 -6 196 -39
91 -40 159 -79 238 -135 30 -21 62 -39 72 -39 34 0 48 89 16 98 -10 3 -23 16
-28 29 -16 43 -12 53 26 53 22 0 35 5 35 13 0 18 -77 97 -120 124 -19 12 -48
36 -65 54 l-30 32 49 -26 c27 -15 54 -27 60 -27 6 0 46 -24 89 -52 64 -44 82
-62 103 -105 14 -28 34 -59 44 -68 43 -38 104 -228 120 -372 13 -116 6 -227
-22 -341 l-20 -84 22 -23 c47 -51 73 6 90 197 20 227 -10 421 -91 581 -49 98
-50 117 -6 117 74 0 82 55 21 136 -45 58 -84 121 -84 134 0 7 13 9 34 5 33 -7
34 -5 65 52 18 32 39 87 48 123 14 59 40 100 64 100 5 0 25 -9 46 -21z m-220
-231 c-3 -7 -5 -2 -5 12 0 14 2 19 5 13 2 -7 2 -19 0 -25z m-1447 -228 c0 -12
-65 -72 -125 -115 -52 -36 -102 -76 -155 -122 -21 -18 -41 -33 -45 -33 -10 0
-65 -60 -65 -71 0 -5 -13 -9 -30 -9 l-29 0 27 52 c29 57 205 238 257 265 61
32 165 53 165 33z m3698 -1519 c42 -16 115 -41 162 -56 207 -67 393 -153 475
-219 22 -18 58 -43 80 -56 119 -70 357 -261 419 -337 25 -30 66 -87 91 -126
152 -235 201 -327 289 -549 46 -117 57 -157 73 -270 10 -77 18 -192 18 -273
l0 -140 -40 -2 c-47 -3 -145 -34 -145 -45 0 -4 -21 -8 -47 -8 -71 0 -81 -12
-36 -41 26 -16 39 -33 41 -52 4 -36 -16 -36 -109 4 -147 62 -139 55 -139 110
0 43 -3 50 -28 63 -45 23 -54 41 -63 128 -25 232 -115 463 -246 638 -102 135
-283 290 -422 359 -226 114 -431 152 -687 128 l-82 -7 -24 52 c-14 29 -40 96
-58 148 -35 101 -73 184 -98 212 -8 10 -31 20 -51 23 -62 11 -78 21 -85 57 -3
19 -13 43 -21 54 -14 18 -14 18 -15 -6 0 -14 8 -41 19 -60 10 -19 24 -52 30
-72 12 -37 25 -44 68 -39 21 3 24 -18 7 -45 -14 -21 -15 -30 -6 -45 7 -10 12
-27 12 -36 0 -10 14 -62 30 -116 51 -171 59 -247 24 -247 -15 0 -84 130 -140
267 -20 48 -47 109 -60 135 -13 26 -24 61 -24 78 0 17 -6 61 -14 98 -41 199
-41 275 2 256 9 -4 24 -6 32 -6 8 1 50 4 93 6 43 3 81 7 86 10 16 10 169 39
246 46 182 16 260 12 343 -19z m-928 -138 c-18 -27 -38 -51 -46 -56 -7 -4 -39
-29 -70 -57 -32 -27 -70 -55 -84 -62 -14 -7 -34 -21 -44 -32 -19 -19 -20 -19
-28 3 -4 13 -5 29 -1 36 5 7 60 56 123 109 165 137 216 157 150 59z m1688 -65
c3 -24 0 -28 -23 -28 -27 0 -41 20 -31 46 10 27 51 13 54 -18z m-1595 -313 c9
-8 21 -32 28 -52 7 -21 38 -94 71 -162 32 -68 58 -127 58 -131 0 -6 -63 -55
-168 -132 -39 -27 -150 -143 -191 -197 -13 -18 -26 -30 -28 -27 -11 11 19 72
51 106 18 19 37 48 40 64 4 17 24 45 44 64 31 29 36 42 38 82 l3 48 -97 4
c-75 3 -101 1 -114 -11 -10 -8 -18 -10 -18 -6 0 5 -5 4 -12 -3 -14 -14 -48
-16 -48 -4 0 5 7 17 15 28 8 10 15 26 15 34 0 16 126 190 159 221 11 10 26 27
33 38 16 23 65 51 90 51 9 0 23 -7 31 -15z m-2166 -1811 c6 -18 -81 -113 -93
-101 -12 12 27 98 50 107 31 13 36 12 43 -6z m4263 -114 c0 -12 -37 -12 -65 0
-15 7 -10 9 23 9 23 1 42 -3 42 -9z m-580 -634 c0 -11 -19 -15 -25 -6 -3 5 1
10 9 10 9 0 16 -2 16 -4z m-4650 -169 c0 -5 -4 -5 -10 -2 -5 3 -10 14 -10 23
0 15 2 15 10 2 5 -8 10 -19 10 -23z m3120 -374 c0 -7 7 -13 15 -13 9 0 21 -11
27 -25 6 -14 16 -25 21 -25 6 0 8 -3 5 -6 -12 -11 -78 25 -78 43 0 10 -9 24
-20 31 -12 7 -20 23 -20 40 l1 27 24 -30 c14 -16 25 -36 25 -42z"/>
<path d="M6425 7500 c3 -5 13 -10 21 -10 8 0 14 5 14 10 0 6 -9 10 -21 10 -11
0 -17 -4 -14 -10z"/>
<path d="M4160 5105 c0 -8 5 -15 10 -15 6 0 10 7 10 15 0 8 -4 15 -10 15 -5 0
-10 -7 -10 -15z"/>
<path d="M3740 4849 c6 -10 17 -16 25 -13 19 8 12 20 -15 27 -17 4 -18 2 -10
-14z"/>
<path d="M3725 4811 c-3 -5 -1 -12 5 -16 5 -3 10 1 10 9 0 18 -6 21 -15 7z"/>
<path d="M4068 4773 c6 -2 18 -2 25 0 6 3 1 5 -13 5 -14 0 -19 -2 -12 -5z"/>
<path d="M4138 4753 c7 -3 16 -2 19 1 4 3 -2 6 -13 5 -11 0 -14 -3 -6 -6z"/>
<path d="M5399 4313 c0 -16 -2 -57 -5 -93 -4 -47 -2 -61 5 -50 6 8 11 22 11
31 0 9 9 26 20 39 21 24 24 40 14 78 -9 33 -44 29 -45 -5z"/>
<path d="M4641 3854 c0 -11 3 -14 6 -6 3 7 2 16 -1 19 -3 4 -6 -2 -5 -13z"/>
<path d="M6781 3714 c0 -11 3 -14 6 -6 3 7 2 16 -1 19 -3 4 -6 -2 -5 -13z"/>
<path d="M9441 17060 c-20 -12 -6 -73 26 -111 14 -17 65 -63 112 -102 126
-105 258 -242 341 -354 41 -54 90 -117 110 -140 21 -24 66 -93 100 -155 97
-174 110 -194 110 -177 0 17 -56 155 -98 239 -50 102 -212 338 -297 434 -94
105 -200 200 -281 252 -54 35 -94 77 -94 100 0 18 -13 24 -29 14z"/>
<path d="M7040 17035 c0 -8 6 -15 14 -15 8 0 16 7 20 15 4 10 -1 15 -14 15
-11 0 -20 -7 -20 -15z"/>
<path d="M4640 16504 c0 -64 20 -108 39 -89 15 15 -2 112 -23 133 -15 15 -16
12 -16 -44z"/>
<path d="M10502 15188 c-7 -7 -85 -14 -219 -19 -563 -22 -978 -63 -1228 -120
-157 -36 -535 -157 -647 -208 -77 -34 -151 -98 -179 -154 -24 -46 -66 -184
-120 -392 -21 -82 -50 -186 -64 -230 -13 -44 -43 -141 -65 -215 -22 -74 -52
-169 -66 -210 -35 -101 -138 -466 -159 -565 -10 -44 -26 -107 -35 -140 -10
-33 -49 -184 -86 -335 l-68 -275 -4 -220 c-3 -197 -1 -229 17 -308 12 -48 30
-105 41 -127 11 -22 20 -47 20 -57 0 -10 9 -26 20 -36 20 -17 23 -26 22 -82
l-1 -30 11 28 c14 33 38 36 38 3 0 -30 22 -50 38 -34 9 9 17 7 32 -7 11 -10
28 -19 38 -20 9 0 23 -4 30 -9 8 -5 12 2 12 23 0 17 5 31 10 31 6 0 10 -9 10
-21 0 -72 68 -213 137 -283 61 -63 93 -82 183 -114 111 -39 187 -50 401 -58
l175 -7 36 34 c19 19 53 48 74 65 61 49 92 103 130 225 48 157 53 176 55 242
1 31 6 57 10 57 7 0 15 -49 25 -160 8 -90 10 -97 33 -76 12 11 27 14 47 10 26
-5 33 -1 62 39 37 53 40 78 11 131 -11 21 -18 41 -15 43 3 3 21 -2 41 -11 52
-25 60 -10 20 37 -35 40 -35 41 -17 60 19 18 19 20 1 57 -11 23 -28 40 -42 44
-14 3 -30 18 -37 36 -12 30 -174 182 -241 227 -20 13 -60 33 -89 44 l-52 20 7
-41 c5 -27 3 -40 -4 -40 -16 0 -99 78 -106 100 -3 11 -19 20 -38 23 -47 7 -51
-1 -17 -33 31 -29 39 -50 19 -50 -6 0 -36 7 -66 16 -30 9 -66 13 -80 9 -14 -3
-41 -1 -62 6 -53 17 -181 91 -181 104 0 7 41 16 103 24 104 12 270 4 375 -20
135 -30 281 -115 409 -240 49 -46 53 -48 53 -26 0 14 -11 44 -24 68 -21 38
-46 109 -51 144 -3 25 -38 99 -60 128 -9 12 -27 19 -51 20 -20 1 -32 3 -25 5
6 2 11 9 11 17 0 8 -23 14 -76 17 -42 3 -79 10 -83 15 -3 6 -20 14 -38 17 -17
4 -37 13 -43 21 -12 14 -70 6 -95 -15 -8 -7 -22 -10 -30 -6 -9 3 -15 0 -15 -9
0 -9 -6 -12 -15 -9 -8 4 -17 -1 -21 -10 -4 -9 -18 -15 -37 -15 -39 0 -64 -5
-73 -14 -4 -4 -32 -7 -63 -7 -34 0 -84 -10 -126 -25 -38 -13 -76 -25 -82 -25
-7 0 -31 18 -53 40 -32 32 -39 45 -34 65 4 15 2 25 -5 25 -6 0 -11 -6 -11 -14
0 -8 -11 -17 -25 -20 -15 -4 -25 -13 -24 -24 1 -31 94 -136 159 -180 80 -53
85 -58 67 -65 -9 -3 -46 9 -84 28 -50 24 -89 55 -146 114 -44 45 -85 81 -93
81 -8 0 -14 7 -14 15 0 18 -7 19 -24 3 -21 -20 5 -59 107 -162 37 -38 66 -71
63 -73 -16 -16 -64 17 -139 97 -47 49 -91 90 -96 90 -15 0 -61 49 -61 65 0 8
-4 15 -10 15 -8 0 -32 64 -36 100 -1 8 -4 43 -8 76 -7 76 -14 94 -34 94 -12 0
-13 3 -4 12 15 15 16 55 1 60 -16 5 -19 72 -5 99 6 13 13 42 15 64 1 22 9 67
16 100 36 164 67 291 74 300 4 5 20 53 35 105 16 52 41 131 57 175 15 44 31
94 36 110 7 29 8 29 11 -13 2 -26 7 -40 14 -36 6 4 8 -1 5 -12 -4 -11 -9 -32
-13 -48 -4 -16 -13 -41 -20 -55 -8 -14 -14 -31 -14 -38 0 -6 -12 -35 -26 -63
-14 -28 -24 -54 -21 -56 8 -8 51 54 108 156 29 52 70 120 91 151 21 31 38 60
38 64 0 5 14 26 30 49 51 69 79 110 89 131 23 52 248 265 279 265 5 0 12 7 16
15 3 8 16 19 30 25 13 5 66 33 117 62 110 63 273 127 344 135 28 3 55 10 61
15 24 19 54 -27 84 -127 51 -171 93 -245 212 -375 106 -116 166 -171 225 -205
49 -28 71 -12 122 86 l43 84 -7 105 c-8 112 -41 318 -76 465 -20 86 -25 147
-15 164 3 5 128 7 278 5 265 -3 320 -7 673 -54 90 -12 214 -42 290 -70 85 -31
175 -30 175 2 0 10 -4 18 -9 18 -5 0 -11 10 -13 23 -2 17 -10 23 -38 25 -65 5
-76 11 -95 51 -20 45 -35 54 -67 41 -13 -5 -17 -9 -10 -9 6 -1 12 -6 12 -12 0
-7 10 -20 22 -30 28 -25 19 -32 -17 -13 -21 11 -30 12 -36 3 -4 -6 -12 -8 -18
-5 -6 4 -9 11 -7 15 9 13 -9 28 -41 34 -19 4 -33 2 -33 -3 0 -6 -7 -10 -15
-10 -10 0 -15 10 -15 30 0 30 -1 30 -55 30 -70 0 -72 -18 -2 -23 33 -2 19 -4
-40 -5 l-93 -2 0 35 c0 34 -1 35 -40 35 -33 0 -40 -3 -40 -20 0 -11 5 -20 10
-20 6 0 10 -9 10 -20 0 -17 -7 -20 -42 -21 -58 -2 -73 -1 -148 9 -36 5 -66 7
-67 3 -2 -3 -60 -2 -130 2 -71 5 -188 10 -261 11 l-133 1 -20 44 c-27 62 -22
76 26 77 171 6 436 3 510 -5 50 -6 171 -15 270 -21 99 -6 212 -15 250 -21 39
-5 109 -11 157 -13 48 -3 102 -11 120 -19 18 -8 55 -18 82 -21 40 -5 150 -33
164 -42 2 -1 6 -17 9 -36 3 -18 14 -51 24 -73 11 -22 24 -69 30 -105 6 -36 15
-83 20 -105 6 -22 14 -170 19 -328 5 -172 14 -303 21 -325 13 -40 39 -83 39
-65 0 7 -4 15 -10 18 -5 3 -10 18 -10 33 0 53 13 53 69 -1 29 -28 48 -53 42
-55 -6 -2 -11 -10 -11 -18 0 -16 43 31 110 119 85 113 113 223 103 403 -4 76
-3 107 7 119 7 8 16 12 21 9 5 -3 9 33 9 80 0 51 4 86 10 86 6 0 10 16 10 35
0 29 4 35 21 35 11 0 33 -8 47 -18 15 -10 52 -29 82 -41 30 -13 64 -31 75 -41
11 -10 49 -37 85 -61 71 -47 121 -98 181 -184 42 -60 46 -71 28 -77 -9 -3 -9
-10 0 -26 7 -13 17 -20 23 -16 8 5 9 1 5 -10 -4 -10 -3 -15 3 -11 11 7 35 -43
44 -86 2 -13 9 -37 15 -53 17 -42 20 -85 8 -89 -13 -4 18 -96 38 -112 6 -5 20
-35 30 -65 9 -30 21 -59 26 -64 5 -6 9 -16 9 -24 0 -18 22 -40 37 -35 7 3 15
-6 17 -19 13 -58 25 -151 31 -238 7 -105 30 -337 45 -445 15 -117 22 -404 12
-515 -11 -117 -29 -221 -71 -420 -16 -74 -36 -171 -44 -215 -9 -44 -20 -91
-25 -105 -19 -48 -69 -105 -108 -124 -21 -10 -51 -25 -66 -33 -35 -18 -98 -17
-98 1 0 26 29 39 75 34 39 -5 45 -3 45 13 0 22 -11 24 -28 7 -9 -9 -12 -8 -12
5 0 9 7 17 15 17 19 0 20 39 1 46 -7 3 -40 -9 -73 -26 -56 -29 -60 -30 -88
-16 -17 9 -37 16 -46 16 -22 0 -44 26 -29 35 20 12 10 25 -20 25 -37 0 -38 10
-4 49 32 38 24 57 -16 36 -16 -8 -36 -15 -45 -15 -8 0 -15 -6 -15 -13 0 -7 -9
-18 -20 -25 -36 -22 -22 7 25 55 25 25 52 58 60 74 14 26 13 30 -10 55 l-25
27 0 -26 c0 -15 -10 -33 -23 -44 -13 -10 -29 -28 -35 -40 -8 -13 -29 -25 -60
-33 -42 -10 -55 -9 -88 5 -53 23 -287 29 -350 10 -84 -25 -154 -81 -297 -238
-49 -53 -95 -132 -132 -223 -29 -71 -35 -99 -35 -158 0 -172 86 -320 220 -379
83 -37 302 -71 408 -64 120 8 158 22 218 83 53 54 93 127 113 207 10 43 30
250 28 302 -2 49 4 85 13 85 5 0 26 -34 46 -76 32 -66 36 -83 31 -125 -5 -39
-3 -49 8 -49 19 0 19 -31 -1 -117 -28 -126 -56 -208 -80 -240 -32 -42 -31 -54
1 -17 14 16 25 33 25 37 0 5 5 5 10 2 13 -8 13 -108 0 -121 -7 -7 -6 -20 4
-39 8 -16 13 -32 10 -37 -3 -4 0 -8 6 -8 6 0 8 -4 5 -10 -3 -5 -1 -10 5 -10 7
0 10 -7 6 -15 -3 -8 -1 -15 4 -15 6 0 10 -6 10 -14 0 -24 15 -26 17 -3 8 76
28 183 36 188 5 4 6 17 1 30 -4 13 -8 42 -8 64 -1 29 -5 40 -16 40 -11 0 -15
-12 -15 -44 0 -29 -5 -46 -14 -49 -11 -4 -13 3 -8 31 4 25 2 37 -9 41 -16 6
-18 29 -4 54 27 50 60 169 66 246 4 48 10 89 15 91 14 9 22 -108 13 -209 -4
-56 -6 -164 -4 -241 5 -139 4 -268 -1 -355 -1 -25 -1 -72 1 -105 3 -41 -1 -71
-12 -95 -9 -19 -19 -68 -21 -108 -7 -90 -10 -91 144 60 132 130 227 252 259
335 12 32 30 76 40 98 17 37 24 62 65 205 9 30 23 94 30 141 8 48 17 94 21
103 3 9 1 16 -5 16 -6 0 -11 -5 -11 -11 0 -29 -117 -333 -158 -409 -24 -47
-48 -87 -51 -90 -4 -3 -18 -21 -31 -40 -66 -97 -186 -230 -207 -230 -21 0 -15
14 24 60 140 164 248 354 319 565 13 39 32 90 43 115 10 25 23 63 29 85 6 22
22 69 35 105 58 151 66 180 77 295 6 66 18 153 26 193 8 40 14 94 12 120 l-3
47 -48 -97 c-62 -127 -179 -254 -286 -310 -43 -23 -73 -33 -77 -27 -7 13 -13
7 71 61 235 150 322 378 345 903 13 302 13 854 0 1135 -11 245 -19 283 -97
455 -61 133 -91 224 -138 418 -51 209 -66 237 -173 318 -155 116 -408 264
-539 313 -415 157 -653 215 -1088 265 -93 11 -187 27 -207 35 -45 19 -41 19
-56 4z m983 -568 c22 0 43 -11 70 -35 31 -29 50 -37 97 -44 68 -9 71 -11 70
-48 -1 -16 -1 -79 -1 -140 0 -95 -3 -113 -16 -113 -9 0 -15 9 -15 23 0 29 -31
67 -54 67 -9 0 -16 5 -16 10 0 6 -9 10 -20 10 -11 0 -20 4 -20 9 0 5 -12 11
-27 13 -25 3 -29 8 -33 48 -4 37 -9 45 -26 46 -21 0 -22 -4 -23 -110 -1 -110
-3 -127 -14 -156 -3 -8 -8 -22 -10 -30 -3 -8 -6 0 -6 19 -1 18 -5 50 -11 70
-5 20 -17 90 -26 156 -9 66 -20 145 -25 175 -5 30 -6 63 -3 73 5 15 10 14 42
-13 23 -19 48 -30 67 -30z m-2204 -337 c58 -148 97 -210 199 -317 90 -94 113
-126 94 -126 -4 0 -50 44 -103 98 -86 86 -103 109 -150 207 -80 163 -81 165
-81 181 0 31 19 11 41 -43z m-1346 -2103 c22 -30 60 -74 85 -97 36 -34 41 -42
25 -42 -54 -1 -322 89 -337 112 -12 20 2 26 30 11 15 -7 41 -14 58 -14 17 0
48 -7 69 -16 64 -26 74 -14 27 33 -23 23 -45 37 -48 32 -8 -13 -34 9 -34 27 0
8 7 14 15 14 8 0 17 11 21 25 l6 24 22 -27 c12 -15 40 -52 61 -82z m-192 -122
c79 -45 97 -63 50 -52 -32 7 -149 70 -158 84 -14 22 36 7 108 -32z m1264 -66
c30 -36 29 -46 -4 -28 -29 15 -73 53 -73 62 0 16 58 -10 77 -34z m-597 -319
c12 -3 10 -8 -9 -24 -28 -23 -84 -25 -102 -3 -29 35 39 51 111 27z m388 -109
c32 -22 27 -42 -12 -50 -57 -10 -139 27 -121 56 10 16 108 12 133 -6z m71 -87
c23 -41 25 -55 13 -75 -12 -18 -42 -4 -42 19 0 10 -7 19 -15 19 -19 0 -19 -14
-1 -29 23 -19 25 -59 5 -77 -31 -28 -24 -44 20 -44 21 0 44 -6 50 -14 6 -7 22
-11 36 -8 54 10 18 -75 -58 -137 -16 -13 -57 -36 -90 -50 -56 -23 -74 -26
-187 -26 -96 1 -145 6 -210 23 -135 36 -171 54 -242 125 -33 34 -34 37 -8 37
14 0 20 -7 20 -21 0 -11 4 -18 10 -14 9 6 3 35 -10 45 -15 11 -60 90 -60 105
0 19 10 19 46 0 16 -8 39 -15 50 -15 12 0 34 -6 49 -14 15 -8 55 -17 88 -21
34 -4 77 -16 97 -26 29 -15 50 -18 110 -13 41 3 94 5 117 4 51 0 67 20 78 95
7 50 36 95 62 95 8 0 22 13 31 29 9 16 17 29 18 28 1 -1 11 -19 23 -40z m2835
-248 c-8 -14 -24 -10 -24 6 0 9 6 12 15 9 8 -4 12 -10 9 -15z m51 -84 c22 -10
48 -22 58 -27 11 -5 20 -8 21 -6 1 2 12 15 23 31 l21 28 14 -38 c22 -63 16
-225 -10 -308 -40 -121 -102 -189 -203 -219 -39 -12 -64 -12 -165 -1 -193 22
-209 27 -302 97 -38 28 -61 55 -78 92 -36 78 -29 95 24 58 15 -10 34 -17 42
-17 8 1 23 3 32 3 9 1 18 12 20 25 3 20 8 22 63 20 33 -1 78 -6 99 -12 32 -8
42 -7 51 6 10 14 15 14 44 -2 24 -12 31 -21 26 -33 -3 -9 -9 -34 -12 -54 -6
-49 8 -49 58 1 35 34 39 44 39 87 0 27 9 68 19 91 16 35 26 44 60 53 31 8 41
16 41 31 0 17 -4 19 -22 13 -53 -17 -99 0 -118 46 -10 24 -10 33 1 46 17 20
94 14 154 -11z m-360 -1 c30 -30 15 -49 -38 -48 -62 0 -81 18 -48 45 28 23 64
25 86 3z m445 -4 c0 -5 -4 -10 -10 -10 -5 0 -10 5 -10 10 0 6 5 10 10 10 6 0
10 -4 10 -10z m-322 -147 c6 -19 -25 -16 -32 3 -4 11 -1 14 11 12 9 -2 18 -9
21 -15z"/>
<path d="M11441 14564 c0 -11 3 -14 6 -6 3 7 2 16 -1 19 -3 4 -6 -2 -5 -13z"/>
<path d="M11480 14560 c0 -5 5 -10 10 -10 6 0 10 -8 10 -17 0 -13 3 -14 11 -6
7 7 9 19 6 27 -7 17 -37 22 -37 6z"/>
<path d="M11793 10935 c-8 -23 2 -28 26 -15 16 8 21 8 21 -1 0 -7 3 -9 7 -5 8
8 -23 36 -39 36 -5 0 -11 -7 -15 -15z"/>
<path d="M7452 14870 c-96 -20 -179 -92 -229 -200 -31 -67 -34 -81 -28 -130
16 -134 169 -258 289 -235 79 16 226 92 226 117 0 4 7 8 15 8 8 0 15 -7 15
-15 0 -8 -7 -15 -15 -15 -8 0 -15 -8 -15 -19 0 -28 -70 -93 -135 -126 -56 -28
-60 -28 -130 -18 -55 8 -89 20 -135 48 -70 42 -110 79 -110 100 0 8 -4 15 -9
15 -16 0 -25 33 -30 114 -4 48 -11 81 -18 83 -13 5 -63 -140 -63 -181 0 -34
23 -85 59 -129 20 -26 62 -55 125 -88 l96 -50 77 7 c80 7 203 53 246 92 55 50
107 204 109 322 2 117 -70 223 -186 275 -65 30 -101 35 -154 25z m79 -76 c82
-25 144 -59 157 -89 17 -37 15 -82 -5 -103 -71 -72 -85 -95 -78 -128 3 -20 2
-34 -4 -34 -5 0 -12 -9 -16 -20 -3 -10 -19 -26 -36 -34 -25 -13 -29 -13 -29 0
0 12 -4 12 -24 -1 -19 -13 -29 -14 -45 -6 -11 6 -28 11 -39 11 -25 0 -75 47
-66 61 4 7 -2 19 -13 28 -23 18 -58 113 -55 150 1 14 8 32 16 40 7 9 21 31 30
49 9 17 22 32 28 32 6 0 16 8 23 17 12 16 65 40 91 42 6 1 35 -6 65 -15z"/>
<path d="M10593 14693 c9 -2 25 -2 35 0 9 3 1 5 -18 5 -19 0 -27 -2 -17 -5z"/>
<path d="M11110 14446 c0 -2 7 -6 15 -10 8 -3 15 -1 15 4 0 6 -7 10 -15 10 -8
0 -15 -2 -15 -4z"/>
<path d="M5983 14403 c9 -2 23 -2 30 0 6 3 -1 5 -18 5 -16 0 -22 -2 -12 -5z"/>
<path d="M13790 14357 c0 -5 5 -29 12 -54 l11 -46 19 23 c16 20 16 24 3 34 -8
6 -21 20 -29 31 -9 11 -16 16 -16 12z"/>
<path d="M13820 14198 c0 -16 5 -28 10 -28 13 0 13 20 0 40 -8 12 -10 9 -10
-12z"/>
<path d="M11860 14136 c6 -8 18 -12 26 -9 19 7 7 23 -18 23 -17 0 -18 -3 -8
-14z"/>
<path d="M12817 13968 c-5 -34 1 -58 26 -118 25 -61 45 -90 107 -152 41 -43
80 -78 86 -78 6 0 20 13 32 29 l22 30 -30 6 c-49 11 -173 167 -201 253 -6 20
-17 45 -24 55 -11 15 -13 12 -18 -25z"/>
<path d="M13176 13935 c5 -22 8 -61 8 -87 -1 -37 2 -46 12 -38 31 26 23 122
-13 151 -15 13 -15 11 -7 -26z"/>
<path d="M13105 13690 c-3 -5 -1 -10 4 -10 6 0 11 5 11 10 0 6 -2 10 -4 10 -3
0 -8 -4 -11 -10z"/>
<path d="M7700 13459 c0 -6 -7 -9 -15 -5 -8 3 -15 1 -15 -5 0 -16 63 -6 67 11
4 13 3 13 -6 0 -7 -10 -11 -11 -11 -2 0 6 -4 12 -10 12 -5 0 -10 -5 -10 -11z"/>
<path d="M8420 12970 c-273 -7 -420 -17 -420 -29 0 -7 239 -36 380 -47 188
-14 443 -79 585 -148 60 -29 122 -58 137 -64 22 -9 27 -18 30 -53 3 -39 5 -42
48 -56 25 -9 47 -19 50 -23 3 -4 14 -9 25 -11 17 -4 20 -13 23 -77 3 -64 5
-72 23 -72 27 0 99 23 99 32 0 5 5 8 11 8 7 0 22 11 35 25 20 22 32 25 89 25
58 0 65 2 65 20 0 19 29 31 133 56 16 4 31 13 34 21 3 8 13 11 24 8 30 -10 49
48 49 149 l0 84 -36 22 c-41 26 -58 31 -264 70 -179 34 -305 48 -550 60 -192
10 -188 10 -570 0z"/>
<path d="M9158 12430 c4 -108 14 -146 35 -133 7 4 30 10 52 14 l40 6 -42 2
-43 1 0 85 c0 76 -3 89 -22 108 l-23 23 3 -106z"/>
<path d="M11490 12513 c-66 -11 -103 -27 -137 -56 -43 -38 -63 -81 -63 -138 0
-83 59 -121 189 -121 105 1 327 20 430 38 79 14 111 15 196 6 56 -6 109 -14
118 -18 10 -3 17 -1 17 5 0 6 -9 11 -20 11 -22 0 -28 28 -7 36 7 2 13 13 14
23 2 22 -16 30 -147 76 -258 90 -518 150 -590 138z"/>
<path d="M8520 12160 c0 -5 9 -10 21 -10 11 0 17 5 14 10 -3 6 -13 10 -21 10
-8 0 -14 -4 -14 -10z"/>
<path d="M14260 11805 c-15 -8 -53 -14 -92 -15 -56 0 -69 -3 -78 -19 -5 -11
-10 -76 -10 -144 0 -88 -4 -135 -15 -160 -14 -35 -14 -37 8 -49 32 -19 268
-18 291 1 25 21 71 92 84 131 7 18 12 58 12 90 0 94 -67 180 -140 180 -19 -1
-46 -7 -60 -15z m14 -60 c9 -14 16 -33 16 -45 0 -11 5 -20 11 -20 8 0 10 -16
7 -48 -6 -59 -41 -112 -75 -112 -22 0 -23 3 -23 79 0 97 17 181 36 174 7 -2
20 -15 28 -28z"/>
<path d="M14452 11803 c8 -10 25 -40 39 -66 19 -39 21 -49 10 -56 -10 -7 -12
-25 -6 -82 3 -41 9 -82 11 -91 4 -12 -2 -21 -19 -27 -39 -15 -51 -61 -16 -61
32 0 78 37 94 77 19 44 19 163 1 222 -15 51 -67 101 -105 101 -22 0 -23 -2 -9
-17z"/>
<path d="M11429 11771 c-47 -14 -94 -34 -104 -45 -12 -12 -21 -14 -23 -7 -8
24 -23 10 -18 -16 5 -23 -1 -36 -34 -71 -22 -24 -40 -47 -40 -51 0 -5 -7 -11
-15 -15 -8 -3 -15 -13 -15 -23 0 -10 -18 -54 -40 -97 -22 -44 -40 -81 -40 -83
0 -2 7 -3 15 -3 8 0 15 4 15 9 0 33 191 239 259 278 84 50 219 65 391 42 173
-22 193 -23 188 -8 -8 25 -299 100 -403 103 -16 1 -34 4 -40 8 -5 3 -49 -6
-96 -21z"/>
<path d="M15160 11775 c-3 -39 7 -309 22 -550 1 -16 4 6 8 50 3 44 2 156 -3
250 -9 178 -23 305 -27 250z"/>
<path d="M13996 11734 c-3 -8 -6 -78 -6 -154 0 -109 3 -139 14 -143 8 -3 17
-3 20 0 3 4 6 70 6 148 0 109 -3 145 -14 154 -11 9 -15 8 -20 -5z"/>
<path d="M8985 11051 c-3 -5 -29 -17 -58 -27 -31 -11 -45 -20 -34 -22 22 -5
87 17 87 29 0 5 7 9 15 9 8 0 15 5 15 10 0 13 -17 13 -25 1z"/>
<path d="M7984 10956 c-3 -9 -3 -24 1 -33 6 -17 7 -17 21 2 8 10 13 24 11 29
-6 17 -27 18 -33 2z"/>
<path d="M8112 10940 c0 -14 2 -19 5 -12 2 6 2 18 0 25 -3 6 -5 1 -5 -13z"/>
<path d="M8240 10925 c0 -10 7 -15 18 -13 21 4 19 22 -2 26 -10 2 -16 -3 -16
-13z"/>
<path d="M8387 10903 c-10 -9 -9 -63 1 -63 14 0 42 35 42 53 0 17 -30 24 -43
10z"/>
<path d="M8553 10893 c-35 -4 -43 -23 -19 -42 18 -15 64 -4 76 19 7 13 6 20
-6 24 -9 3 -16 5 -17 4 -1 0 -17 -3 -34 -5z"/>
<path d="M8095 10870 c4 -6 11 -8 16 -5 14 9 11 15 -7 15 -8 0 -12 -5 -9 -10z"/>
<path d="M11897 10523 c-20 -14 -35 -28 -33 -31 3 -2 24 10 48 27 23 17 38 31
32 31 -5 0 -26 -12 -47 -27z"/>
<path d="M12097 10223 c-10 -10 -8 -93 2 -93 13 0 21 26 21 66 0 32 -8 42 -23
27z"/>
<path d="M13723 10123 c-4 -21 -8 -40 -8 -43 -9 -34 -18 -74 -28 -115 -6 -27
-14 -55 -19 -61 -8 -11 -29 -87 -93 -332 -62 -239 -126 -394 -217 -532 -28
-41 -56 -80 -62 -85 -16 -15 -90 -124 -111 -165 -30 -58 -44 -253 -45 -640 0
-195 -3 -364 -6 -375 -3 -11 -28 -36 -55 -55 -94 -65 -96 -72 -44 -124 62 -63
156 -136 166 -131 17 11 9 28 -38 75 -27 26 -56 55 -65 66 -9 10 -24 25 -32
32 -22 18 -9 42 23 42 15 0 32 5 39 12 9 9 15 9 24 0 9 -9 7 -16 -6 -31 -17
-19 -17 -21 4 -50 22 -32 39 -40 41 -18 0 6 1 28 2 47 2 31 8 38 76 80 87 53
111 82 122 147 4 26 8 190 8 363 1 232 4 319 13 328 17 17 72 15 148 -4 41
-11 79 -15 102 -10 l37 7 -20 39 c-20 39 -49 190 -49 258 0 50 20 35 50 -36
25 -63 42 -74 48 -33 3 17 9 22 22 18 10 -3 21 0 23 7 2 6 31 20 63 30 33 11
70 25 84 32 56 28 100 45 132 50 18 4 49 15 68 25 116 59 185 78 207 56 12
-13 23 -7 23 13 0 12 7 20 16 20 14 0 14 -3 4 -15 -7 -9 -10 -18 -7 -21 10
-11 27 7 28 29 1 18 2 19 6 4 4 -16 9 -13 29 17 13 19 24 40 24 46 0 18 -53 6
-170 -38 -154 -58 -292 -92 -378 -92 -31 -1 -84 -7 -117 -15 -73 -18 -147 -19
-163 -3 -15 15 -68 -2 -122 -37 -43 -29 -147 -57 -156 -43 -7 12 64 88 82 88
7 0 42 18 77 40 70 44 104 97 98 153 -1 16 5 58 15 94 13 49 15 67 6 72 -7 4
-15 34 -17 67 -5 47 -1 70 15 107 11 25 21 62 22 82 1 20 5 38 9 41 4 2 11 26
14 52 4 26 9 58 12 72 3 14 7 43 8 65 2 22 7 65 11 95 5 30 9 60 9 65 1 6 4
19 8 30 13 39 33 175 26 175 -5 0 -11 -17 -16 -37z"/>
<path d="M10076 10122 c-3 -9 -8 -22 -11 -28 -6 -12 44 -34 77 -34 10 0 38 -9
63 -21 52 -24 70 -22 46 6 -37 43 -68 64 -118 78 -47 14 -52 14 -57 -1z"/>
<path d="M10593 10115 c-18 -8 -33 -18 -33 -24 0 -5 -9 -12 -19 -16 -10 -3
-29 -21 -42 -40 -13 -19 -31 -35 -39 -35 -10 0 -17 -11 -18 -31 -2 -28 0 -30
13 -19 36 30 -2 -32 -57 -93 -15 -17 -30 -44 -34 -61 -4 -17 -15 -40 -25 -51
-11 -11 -25 -29 -33 -39 -12 -18 -17 -18 -59 -6 -26 7 -45 16 -42 20 2 4 -7
13 -20 20 -30 16 -31 24 -6 47 22 21 51 86 51 117 0 12 3 16 8 10 5 -9 11 -8
20 2 11 12 9 14 -6 14 -12 0 -24 11 -32 29 -18 44 -53 72 -98 78 -53 7 -86
-16 -108 -75 -26 -69 -43 -92 -70 -92 -28 0 -74 47 -74 75 0 27 -27 65 -46 65
-20 0 -19 -111 1 -150 19 -37 91 -94 135 -108 19 -6 64 -16 99 -21 35 -6 71
-17 81 -26 9 -8 22 -15 28 -15 7 0 24 -12 39 -28 53 -53 74 -58 157 -38 84 20
175 69 225 122 31 34 33 39 26 89 -5 44 -2 63 20 115 20 47 25 75 23 118 -3
64 -13 70 -65 47z m31 -44 c7 -10 -22 -37 -30 -28 -9 8 3 37 15 37 5 0 12 -4
15 -9z m-50 -46 c-4 -8 -8 -15 -10 -15 -2 0 -4 7 -4 15 0 8 4 15 10 15 5 0 7
-7 4 -15z m6 -190 c-7 -8 -27 -15 -44 -14 l-31 1 35 13 c47 18 55 18 40 0z"/>
<path d="M15085 10109 c-5 -6 -9 -19 -10 -28 -4 -28 -17 -62 -41 -107 -12 -23
-37 -95 -54 -160 -18 -64 -43 -134 -56 -156 -13 -21 -21 -38 -16 -38 15 0 72
66 72 82 0 10 7 21 15 26 20 10 70 174 90 295 15 86 15 112 0 86z m-85 -359
c0 -5 -2 -10 -4 -10 -3 0 -8 5 -11 10 -3 6 -1 10 4 10 6 0 11 -4 11 -10z"/>
<path d="M12419 10064 c-26 -31 -261 -209 -277 -209 -9 0 -20 -13 -26 -30 -9
-29 -36 -108 -98 -285 -83 -235 -206 -497 -304 -648 -176 -271 -349 -418 -797
-676 -89 -51 -187 -106 -217 -121 -110 -55 -250 -139 -250 -151 0 -16 105 -81
215 -133 87 -41 116 -56 219 -108 31 -16 73 -27 114 -31 l64 -5 -49 51 c-36
37 -59 52 -88 57 -114 21 -215 54 -310 105 -131 69 -122 87 51 100 283 22 436
68 624 188 126 80 330 202 339 202 15 0 56 -59 74 -108 33 -84 20 -128 -61
-215 -82 -86 -134 -150 -146 -178 -6 -14 -39 -49 -73 -78 -39 -32 -63 -59 -63
-72 0 -16 3 -18 19 -9 29 15 221 216 221 230 0 5 20 23 44 40 24 17 49 43 55
56 6 14 18 24 26 22 22 -4 115 100 115 129 0 16 -6 23 -20 23 -11 0 -20 -7
-20 -15 0 -8 -9 -15 -20 -15 -22 0 -22 -3 2 95 13 54 41 125 51 125 4 0 7 8 7
17 0 19 172 309 208 351 25 29 25 28 5 -40 -5 -18 4 -13 43 23 28 25 54 48 59
50 6 2 28 30 49 62 58 84 70 92 61 38 -7 -41 -6 -42 13 -32 11 6 31 28 43 48
13 21 65 94 115 163 100 137 237 345 303 457 22 40 46 75 51 78 6 3 10 13 10
21 0 24 -11 13 -136 -134 -114 -132 -198 -222 -210 -222 -31 0 -243 -206 -410
-400 -176 -203 -487 -480 -512 -456 -7 8 9 23 176 171 98 86 290 289 403 425
29 35 60 71 69 80 8 9 49 57 90 109 51 64 83 94 101 98 23 4 77 52 146 128 67
76 134 157 161 198 18 26 46 67 62 91 17 24 30 48 30 53 0 6 9 20 20 33 22 26
27 60 8 60 -13 0 -78 -72 -78 -86 0 -17 -63 -104 -75 -104 -14 0 -78 -74 -70
-82 2 -2 -18 -32 -45 -65 -28 -34 -50 -66 -50 -71 0 -5 -25 -34 -56 -66 -59
-60 -88 -66 -55 -12 56 90 65 130 31 141 -12 4 -20 15 -20 30 0 12 -7 25 -15
29 -19 7 -19 56 0 126 8 30 28 109 44 175 16 66 34 133 40 148 6 16 11 33 11
38 0 15 -26 10 -41 -7z m5 -887 c-7 -19 -64 -60 -64 -47 0 14 46 60 59 60 6 0
8 -6 5 -13z"/>
<path d="M12082 9985 c0 -16 2 -22 5 -12 2 9 2 23 0 30 -3 6 -5 -1 -5 -18z"/>
<path d="M13164 9873 c-9 -15 -38 -62 -64 -103 -26 -41 -62 -102 -80 -135 -17
-33 -38 -67 -44 -75 -7 -8 -30 -44 -50 -79 -20 -35 -57 -90 -82 -122 -24 -31
-44 -62 -44 -67 0 -6 -3 -12 -8 -14 -4 -1 -32 -32 -62 -68 -30 -36 -131 -144
-224 -240 -93 -96 -180 -193 -194 -215 -14 -22 -43 -64 -64 -92 -21 -29 -49
-72 -61 -95 -42 -77 -249 -394 -266 -408 -18 -14 -81 -99 -81 -109 0 -6 -4
-11 -9 -11 -6 0 -16 -10 -23 -23 -13 -23 -95 -150 -167 -256 -20 -30 -40 -61
-45 -71 -5 -9 -22 -24 -38 -33 -16 -9 -28 -25 -28 -37 0 -11 -4 -20 -10 -20
-20 0 -9 -15 20 -28 21 -10 34 -10 47 -3 17 10 17 10 1 11 -21 0 -23 11 -6 28
17 17 48 15 48 -2 0 -15 25 -11 80 12 14 6 57 23 95 38 86 33 184 95 248 157
26 26 50 47 54 47 3 0 40 29 83 65 55 47 96 94 143 164 118 175 132 156 33
-41 -44 -88 -60 -128 -50 -128 8 0 14 4 14 9 0 5 17 30 38 55 45 54 77 115
109 206 24 69 30 120 13 120 -5 0 -10 14 -10 30 0 17 -3 30 -7 30 -5 0 -23 14
-41 31 -17 16 -37 27 -42 24 -26 -16 7 63 43 102 15 17 24 20 33 12 10 -8 16
-1 25 30 7 23 18 46 26 52 7 6 13 17 13 25 0 7 9 18 20 24 11 6 20 17 20 25 0
8 12 27 26 42 14 15 38 48 53 73 23 40 26 42 29 21 2 -14 -6 -33 -21 -50 -14
-14 -32 -40 -40 -57 -9 -17 -23 -37 -32 -44 -9 -7 -23 -29 -31 -48 -20 -49 -4
-62 36 -28 17 14 36 26 41 26 5 0 9 6 9 13 0 15 138 220 152 225 4 2 8 10 8
18 0 7 15 34 33 58 84 115 143 207 193 305 101 200 59 166 -112 -91 -63 -94
-114 -175 -114 -179 0 -4 -6 -12 -13 -16 -7 -4 -26 -25 -41 -45 -31 -41 -43
-47 -53 -22 -4 10 4 24 23 40 16 13 23 23 16 24 -8 0 -6 11 8 37 36 67 20 82
-40 38 -19 -14 -36 -25 -38 -25 -3 0 33 37 80 83 106 102 184 238 387 671 58
122 74 172 35 109z m-1324 -2071 c0 -14 -12 -21 -52 -29 l-51 -10 34 28 c39
33 69 37 69 11z m-132 -79 c-16 -39 -28 -51 -28 -28 0 16 26 55 36 55 2 0 -2
-12 -8 -27z"/>
<path d="M12649 9775 c-1 -3 -2 -8 -3 -12 0 -5 -27 -40 -59 -80 -31 -40 -57
-74 -57 -77 0 -4 6 -6 14 -6 16 0 96 96 96 115 0 6 9 20 20 30 11 10 20 22 20
27 0 8 -29 12 -31 3z"/>
<path d="M9965 9263 c-71 -19 -305 -105 -340 -125 -38 -22 -178 -44 -213 -34
-39 11 -79 -7 -95 -41 -16 -37 -3 -53 45 -53 49 0 212 21 342 44 116 21 170
20 311 -4 64 -11 157 -20 207 -20 102 0 187 -24 325 -91 85 -42 125 -47 131
-16 2 11 -8 23 -29 35 -18 9 -44 28 -58 42 -14 14 -28 25 -31 25 -14 2 -51 27
-46 32 3 3 12 0 21 -7 12 -10 16 -9 21 4 4 11 -9 35 -39 71 -98 119 -178 157
-262 125 -18 -7 -46 -7 -88 1 -75 13 -175 20 -202 12z"/>
<path d="M13760 9130 c0 -5 -9 -10 -20 -10 -14 0 -20 -7 -20 -21 0 -14 -5 -19
-15 -16 -21 9 -63 -28 -49 -43 18 -18 48 -7 62 23 7 15 20 27 28 27 7 0 14 7
14 15 0 8 7 15 16 15 8 0 12 5 9 10 -3 6 -10 10 -16 10 -5 0 -9 -4 -9 -10z"/>
<path d="M13010 9053 c-19 -26 -37 -52 -39 -58 -2 -5 -30 -41 -63 -80 -69 -82
-68 -81 -92 -125 -10 -19 -27 -44 -37 -55 -27 -31 -119 -173 -119 -185 0 -5
-4 -10 -10 -10 -5 0 -10 -8 -10 -18 0 -10 -5 -23 -12 -30 -9 -9 -9 -12 0 -12
7 0 18 12 25 27 6 15 35 52 64 81 29 30 55 62 58 73 4 10 11 19 16 19 5 0 9 6
9 13 0 8 9 22 21 33 12 10 30 35 40 54 11 19 37 60 59 90 22 30 40 63 40 73 0
9 4 17 8 17 11 0 83 121 80 132 -2 5 -19 -13 -38 -39z"/>
<path d="M12227 8833 c-10 -9 -9 -23 2 -23 5 0 11 7 15 15 5 15 -5 20 -17 8z"/>
<path d="M9789 8813 l-66 -17 -2 -70 c-1 -49 -6 -74 -16 -82 -8 -6 -23 -30
-34 -53 -10 -24 -29 -48 -42 -55 -12 -6 -24 -16 -26 -23 -3 -9 34 -12 149 -11
117 1 166 -2 209 -15 33 -10 70 -14 88 -11 20 4 31 3 31 -5 0 -19 15 -12 27
14 9 21 8 28 -5 42 -12 12 -13 18 -4 21 7 2 9 8 6 14 -8 13 15 28 44 28 30 0
84 58 76 82 -3 10 -1 18 5 18 6 0 11 6 11 13 0 7 9 21 21 31 l21 18 -21 22
c-17 18 -41 26 -109 35 -148 21 -289 22 -363 4z"/>
<path d="M12196 8784 c-18 -18 -20 -24 -6 -24 5 0 14 9 20 20 13 24 7 26 -14
4z"/>
<path d="M12137 8730 c-11 -16 -13 -26 -6 -29 16 -5 31 14 27 35 -3 17 -5 16
-21 -6z"/>
<path d="M13035 8708 c-22 -16 -94 -79 -160 -142 -66 -62 -145 -135 -176 -162
-64 -55 -83 -86 -67 -102 8 -8 27 -3 67 18 63 34 242 211 304 301 20 30 48 66
62 81 35 38 18 41 -30 6z"/>
<path d="M11886 8341 c-4 -7 -5 -15 -2 -18 9 -9 19 4 14 18 -4 11 -6 11 -12 0z"/>
<path d="M10240 7945 c0 -13 4 -14 20 -5 11 6 20 13 20 15 0 3 -9 5 -20 5 -11
0 -20 -7 -20 -15z"/>
<path d="M12266 7884 c-13 -33 -6 -49 9 -20 18 33 18 36 6 36 -5 0 -12 -7 -15
-16z"/>
<path d="M12199 7801 c-22 -21 -39 -37 -39 -34 0 2 -16 -16 -35 -41 -19 -26
-35 -51 -35 -56 0 -6 -7 -10 -15 -10 -16 0 -51 -47 -42 -56 8 -8 56 28 57 42
0 7 7 14 15 18 8 3 15 12 15 20 0 8 15 24 34 35 32 20 56 48 83 99 17 32 6 27
-38 -17z"/>
<path d="M11268 7683 c6 -2 18 -2 25 0 6 3 1 5 -13 5 -14 0 -19 -2 -12 -5z"/>
<path d="M10696 7580 c10 -10 121 -43 179 -54 17 -3 94 -9 172 -12 l142 -7 -9
31 c-14 52 -18 55 -69 46 -57 -10 -308 -11 -376 -1 -33 5 -46 4 -39 -3z"/>
<path d="M5243 7505 c53 -108 158 -220 287 -305 12 -8 32 -22 44 -31 67 -51
249 -124 426 -169 74 -20 227 -17 290 4 54 18 110 55 65 43 -11 -3 -58 -13
-105 -22 -91 -19 -144 -16 -234 10 -49 15 -58 20 -63 46 -5 26 -10 29 -43 29
-45 0 -184 47 -350 118 -90 39 -218 152 -281 249 -10 15 -27 39 -39 53 -19 23
-19 20 3 -25z"/>
<path d="M10615 6870 c-39 -15 -49 -36 -37 -83 27 -105 33 -144 39 -245 8
-142 14 -156 57 -149 19 3 45 16 57 28 23 23 23 23 11 168 -7 80 -12 167 -12
193 0 26 -4 58 -10 72 -8 22 -16 26 -47 25 -21 0 -47 -4 -58 -9z"/>
<path d="M8881 6796 c-45 -25 -50 -50 -51 -228 0 -209 8 -236 80 -267 32 -14
70 -21 110 -21 57 0 61 2 80 33 19 30 20 47 18 242 l-3 209 -34 23 c-28 19
-47 23 -105 23 -40 -1 -82 -7 -95 -14z"/>
<path d="M10876 6458 c-3 -18 -8 -69 -12 -112 -3 -44 -12 -96 -19 -117 -8 -20
-16 -59 -20 -86 -7 -51 -23 -93 -37 -93 -4 0 -8 9 -8 19 0 41 -19 29 -26 -16
-3 -27 -12 -59 -19 -73 -7 -16 -11 -61 -10 -120 l3 -95 53 1 c127 3 309 95
446 227 103 99 123 134 126 212 2 51 0 57 -38 95 -22 23 -60 52 -84 66 -65 36
-303 124 -338 124 -7 0 -14 -15 -17 -32z"/>
<path d="M9775 6200 c-27 -3 -66 -14 -85 -22 l-35 -16 36 -1 c20 -1 39 2 43 6
4 4 44 6 90 4 52 -2 86 1 90 8 4 6 17 11 29 12 20 1 20 2 -3 9 -30 10 -96 10
-165 0z"/>
<path d="M6670 6114 c-25 -8 -53 -21 -63 -28 -28 -22 -18 -58 20 -76 18 -8 33
-19 33 -23 0 -21 -76 -39 -137 -33 -55 6 -63 4 -73 -13 -5 -11 -10 -31 -10
-45 0 -17 -8 -29 -27 -38 -35 -17 -37 -27 -13 -65 22 -37 58 -44 81 -17 35 42
174 102 207 89 13 -5 11 -9 -7 -29 -13 -14 -34 -27 -47 -30 -25 -7 -34 -26
-11 -26 6 0 25 7 41 15 15 8 32 15 36 15 4 0 45 21 90 46 194 107 198 139 25
230 -81 42 -93 45 -145 28z m180 -121 c0 -23 -74 -103 -95 -103 -22 0 -19 7
25 57 22 25 40 50 40 54 0 5 7 9 15 9 8 0 15 -8 15 -17z"/>
<path d="M9710 6073 c1 -19 19 -35 34 -30 26 10 19 37 -9 37 -14 0 -25 -3 -25
-7z"/>
<path d="M12295 5702 c-60 -6 -62 -12 -10 -45 28 -18 69 -47 90 -64 47 -40
105 -46 105 -13 0 13 -7 20 -18 20 -19 0 -65 44 -75 71 -7 20 -52 36 -92 31z"/>
<path d="M12650 5653 c0 -5 21 -23 46 -42 79 -60 279 -281 369 -409 113 -160
197 -323 243 -472 64 -203 67 -230 67 -590 0 -240 -4 -353 -13 -400 -8 -36
-20 -99 -28 -140 -8 -41 -21 -110 -29 -154 -15 -74 -15 -79 2 -92 10 -7 22
-14 26 -14 12 0 70 31 90 49 18 15 24 10 111 -79 68 -70 95 -106 104 -138 7
-23 32 -66 56 -95 94 -115 100 -129 92 -210 -10 -109 -44 -277 -86 -420 -30
-101 -36 -135 -29 -160 5 -18 20 -108 34 -202 23 -156 88 -464 118 -560 13
-45 40 -54 45 -16 7 48 36 76 211 206 15 11 46 36 70 55 43 35 43 36 38 87 -5
46 -2 57 29 107 20 30 38 71 41 89 6 39 -20 98 -71 162 -18 22 -49 67 -70 100
-47 74 -69 106 -132 186 -47 60 -74 108 -74 129 0 15 48 12 57 -3 4 -8 22 -22
38 -33 43 -27 67 -51 112 -114 41 -57 113 -194 113 -215 0 -6 8 -19 18 -28 28
-25 67 -10 122 48 48 52 50 56 50 113 0 55 -4 65 -55 142 -30 45 -65 109 -76
142 -33 89 -71 136 -135 164 -60 26 -107 30 -141 11 -22 -12 -22 -12 7 -25 33
-15 50 -35 113 -132 36 -56 46 -65 72 -65 28 0 30 -3 36 -43 4 -31 1 -48 -8
-58 -28 -27 -49 -15 -88 47 -38 62 -84 119 -177 217 -44 47 -50 60 -51 99 -2
43 0 46 40 66 23 12 43 27 43 34 0 7 -15 49 -33 95 -19 46 -37 96 -41 112 -7
29 -40 82 -103 164 -49 65 -42 87 10 31 38 -40 79 -101 112 -164 11 -22 61
-31 84 -16 11 7 12 13 4 23 -6 7 -26 40 -43 73 -74 137 -183 274 -290 363 -36
30 -78 66 -95 81 -16 15 -43 36 -60 47 -42 26 -45 32 -46 94 -1 46 -3 50 -9
25 -5 -19 -8 21 -9 105 -1 123 -34 374 -56 433 -4 10 -3 17 4 17 6 0 11 7 11
15 0 8 -7 15 -15 15 -17 0 -35 39 -35 77 0 18 4 24 15 19 11 -4 15 1 15 18 0
30 -10 39 -27 24 -7 -6 -15 -9 -18 -6 -2 2 -9 38 -16 79 -10 66 -63 199 -80
199 -3 0 -12 19 -20 43 -16 49 -80 157 -123 207 -17 20 -56 68 -85 108 -30 39
-58 72 -62 72 -4 0 -16 16 -28 35 -11 19 -26 35 -32 35 -7 0 -32 19 -56 43
-90 86 -153 152 -153 159 0 3 -7 14 -16 22 -16 16 -54 22 -54 9z m1101 -2180
c13 -16 12 -17 -3 -4 -10 7 -18 15 -18 17 0 8 8 3 21 -13z m113 -1210 c73 -63
123 -125 181 -223 50 -86 70 -160 42 -160 -18 0 -73 74 -108 145 -13 27 -64
91 -113 142 -76 80 -87 96 -82 118 4 14 10 25 15 25 5 0 34 -21 65 -47z"/>
<path d="M13180 5312 c0 -6 6 -17 13 -24 23 -24 127 -178 136 -201 5 -12 27
-44 50 -72 22 -27 36 -52 31 -55 -5 -3 -1 -18 9 -34 15 -23 20 -25 23 -11 3
15 5 15 29 -3 14 -11 31 -39 39 -61 7 -22 17 -38 21 -35 5 3 9 0 9 -6 0 -7 13
-29 29 -49 16 -20 41 -58 56 -85 30 -54 62 -92 70 -85 3 3 -10 30 -28 60 -19
30 -67 108 -106 174 -107 176 -191 294 -281 395 -12 14 -30 34 -39 45 -27 33
-61 59 -61 47z"/>
<path d="M14070 4918 c0 -17 29 -74 113 -223 31 -55 67 -125 79 -155 12 -30
28 -61 35 -68 7 -7 13 -18 13 -23 0 -5 5 -9 10 -9 50 0 -134 385 -225 470 -19
18 -25 20 -25 8z"/>
<path d="M9040 3645 c19 -7 53 -13 75 -13 22 0 32 2 23 5 -10 2 -18 9 -18 14
0 5 -26 9 -57 8 l-58 -1 35 -13z"/>
<path d="M11523 2193 c-3 -10 -8 -21 -10 -25 -2 -5 5 -8 16 -8 16 0 21 6 21
25 0 29 -18 34 -27 8z"/>
<path d="M13610 1474 c0 -12 49 -143 66 -175 39 -77 18 26 -25 123 -19 42 -41
70 -41 52z"/>
<path d="M14424 1403 c-59 -97 -167 -236 -247 -316 -13 -13 -15 -22 -7 -37 8
-15 6 -24 -10 -40 -21 -21 -27 -50 -11 -50 5 0 18 15 29 33 61 96 153 207 172
207 5 0 7 6 4 13 -3 8 8 26 23 41 l27 27 9 -23 c9 -25 -6 -174 -24 -243 -24
-85 -151 -471 -164 -495 -8 -14 -29 -42 -48 -63 -66 -69 -68 -163 -6 -255 16
-24 29 -45 29 -48 0 -2 -13 -4 -30 -4 -16 0 -29 3 -28 8 4 15 -27 52 -44 52
-24 0 -24 -47 0 -54 9 -2 2 -4 -17 -3 -33 2 -34 3 -59 82 -38 124 -44 319 -12
400 4 11 18 49 31 85 12 36 26 69 31 74 4 6 8 24 8 40 0 38 -8 30 -74 -69 -25
-38 -53 -78 -62 -87 -9 -10 -22 -26 -28 -37 -6 -11 -23 -40 -38 -65 -27 -46
-32 -69 -44 -189 -4 -37 -11 -70 -15 -73 -13 -8 -11 -177 3 -250 l11 -63 376
-1 376 0 33 51 c30 48 32 58 32 137 0 46 -5 112 -10 146 -6 33 -28 194 -51
356 -22 162 -52 360 -66 440 -14 80 -30 180 -36 223 -9 63 -14 77 -29 77 -9 0
-25 -12 -34 -27z m1 -899 c14 -14 14 -19 2 -37 -14 -22 -90 -67 -112 -67 -6 0
-19 6 -29 13 -17 13 -17 15 -2 45 9 17 26 38 38 46 29 21 82 20 103 0z m-105
-414 c0 -5 -5 -10 -11 -10 -5 0 -7 5 -4 10 3 6 8 10 11 10 2 0 4 -4 4 -10z"/>
<path d="M13452 1369 c-27 -10 -39 -22 -70 -66 -24 -34 -27 -67 -11 -128 28
-109 47 -119 103 -54 72 85 95 173 56 221 -23 30 -47 38 -78 27z"/>
<path d="M14554 1336 c-4 -19 2 -63 21 -135 15 -58 31 -133 36 -166 4 -33 15
-80 23 -105 l15 -45 -5 60 c-2 33 -11 85 -19 115 -7 30 -19 94 -25 142 -7 47
-18 104 -25 125 l-13 38 -8 -29z"/>
<path d="M13809 1063 c-24 -34 -51 -71 -59 -83 -8 -12 -20 -28 -26 -34 -6 -6
-22 -31 -36 -56 -14 -25 -34 -61 -45 -80 -115 -202 -124 -223 -148 -317 -26
-107 -69 -290 -91 -393 -8 -36 -17 -73 -20 -82 -5 -17 8 -18 169 -18 l174 0 7
132 c4 73 11 165 16 203 5 39 12 103 15 143 3 40 10 84 15 98 14 35 12 44 -5
44 -33 0 -5 184 60 392 15 48 25 93 23 100 -3 7 -24 -15 -49 -49z"/>
<path d="M14127 1043 c-13 -13 -7 -32 8 -27 8 4 15 12 15 20 0 15 -12 19 -23
7z"/>
<path d="M15249 946 c16 -17 23 -38 25 -74 2 -27 10 -60 19 -73 19 -27 22 -43
6 -33 -6 3 -5 -4 3 -17 40 -70 55 -90 71 -95 9 -3 17 -12 17 -21 0 -25 33 -73
50 -73 9 0 22 -6 29 -12 11 -10 14 -10 18 0 3 6 10 12 17 12 7 0 30 9 52 19
30 15 40 26 42 46 4 46 -47 127 -140 221 -79 82 -96 94 -147 108 -79 22 -89
21 -62 -8z"/>
<path d="M13017 903 c-8 -73 1 -211 15 -240 8 -16 20 -23 40 -23 32 0 32 10 2
77 -18 40 -34 123 -34 177 0 68 -16 74 -23 9z"/>
<path d="M13985 899 c-11 -17 1 -21 15 -4 8 9 8 15 2 15 -6 0 -14 -5 -17 -11z"/>
<path d="M14652 850 c0 -14 2 -19 5 -12 2 6 2 18 0 25 -3 6 -5 1 -5 -13z"/>
<path d="M13927 839 c-9 -5 -26 -27 -36 -48 -11 -21 -31 -45 -45 -55 -14 -9
-26 -25 -26 -36 0 -31 17 -24 44 19 14 22 30 42 36 46 9 6 54 85 48 85 -2 0
-11 -5 -21 -11z"/>
<path d="M14665 738 c3 -42 13 -114 21 -160 8 -46 17 -98 19 -116 6 -58 16
-90 31 -103 18 -15 18 -7 -2 96 -8 44 -24 135 -34 203 -23 148 -44 197 -35 80z"/>
<path d="M12995 600 c-3 -5 -1 -10 4 -10 6 0 11 5 11 10 0 6 -2 10 -4 10 -3 0
-8 -4 -11 -10z"/>
<path d="M12975 523 c-4 -16 -10 -35 -14 -43 -5 -9 -11 -29 -15 -45 -5 -26
-36 -386 -36 -422 0 -8 13 -13 34 -13 34 0 35 0 40 53 12 112 27 457 21 476
-9 29 -24 26 -30 -6z"/>
<path d="M3465 490 c-16 -7 -13 -9 18 -9 20 -1 37 4 37 9 0 12 -27 12 -55 0z"/>
<path d="M14723 278 c2 -26 6 -51 10 -54 11 -11 8 69 -3 86 -8 11 -10 2 -7
-32z"/>
<path d="M14744 146 c-21 -23 -45 -88 -42 -114 3 -25 7 -27 57 -30 l53 -3 -6
37 c-7 37 -17 63 -39 100 -9 15 -15 18 -23 10z"/>
</g>
</svg>
